<svg id="svg" version="1.1" xmlns="http://www.w3.org/2000/svg" xmlns:xlink="http://www.w3.org/1999/xlink" width="400" height="400" viewBox="0, 0, 400,400"><g id="svgg"><path id="path0" d="M205.001 52.042 C 204.422 52.981,202.223 56.563,200.115 60.000 C 198.007 63.438,195.293 67.862,194.085 69.833 C 192.876 71.804,190.555 75.592,188.927 78.250 C 187.299 80.908,185.271 84.208,184.422 85.583 C 183.572 86.958,182.166 89.246,181.297 90.667 C 179.505 93.595,176.280 98.854,172.966 104.250 C 171.728 106.267,169.683 109.604,168.421 111.667 C 167.160 113.729,165.432 116.542,164.582 117.917 C 163.215 120.129,161.590 122.778,155.537 132.667 C 154.668 134.087,153.261 136.375,152.412 137.750 C 151.563 139.125,149.259 142.875,147.292 146.083 C 137.967 161.293,134.181 167.466,129.248 175.500 C 128.038 177.471,126.036 180.733,124.800 182.750 C 123.563 184.767,121.516 188.104,120.252 190.167 C 118.987 192.229,116.942 195.567,115.708 197.583 C 114.474 199.600,113.285 201.530,113.065 201.871 C 112.372 202.952,112.357 202.954,115.696 201.401 C 117.192 200.704,118.942 199.925,119.583 199.669 C 120.225 199.412,122.470 198.407,124.573 197.435 C 126.676 196.462,128.455 195.667,128.528 195.667 C 128.601 195.667,130.293 194.909,132.288 193.982 C 134.284 193.056,136.517 192.052,137.250 191.752 C 139.021 191.027,139.626 190.758,142.647 189.345 C 144.056 188.686,145.760 187.928,146.432 187.661 C 147.104 187.394,149.356 186.386,151.435 185.421 C 153.515 184.456,155.282 183.667,155.363 183.667 C 155.444 183.667,157.542 182.729,160.026 181.583 C 162.511 180.438,164.609 179.500,164.688 179.500 C 164.768 179.500,166.765 178.609,169.125 177.520 C 171.486 176.432,173.603 175.484,173.830 175.414 C 174.057 175.344,175.857 174.539,177.830 173.625 C 179.803 172.712,181.942 171.755,182.583 171.500 C 183.225 171.245,185.400 170.271,187.417 169.336 C 189.433 168.401,191.533 167.463,192.083 167.252 C 192.633 167.041,194.720 166.108,196.721 165.178 C 198.722 164.248,200.822 163.311,201.388 163.096 C 201.954 162.880,203.298 162.287,204.375 161.778 L 206.333 160.853 206.333 105.593 C 206.333 75.200,206.270 50.333,206.194 50.333 C 206.117 50.333,205.580 51.102,205.001 52.042 M113.007 220.839 C 113.241 221.157,113.724 221.829,114.081 222.333 C 114.438 222.838,115.490 224.300,116.420 225.583 C 118.764 228.822,121.967 233.254,125.091 237.583 C 126.546 239.600,128.822 242.750,130.148 244.583 C 131.475 246.417,133.397 249.079,134.419 250.500 C 135.441 251.921,139.125 257.021,142.604 261.833 C 148.617 270.150,152.472 275.486,163.316 290.500 C 165.931 294.121,170.889 300.983,174.334 305.750 C 177.779 310.517,182.762 317.417,185.408 321.083 C 188.053 324.750,190.685 328.391,191.256 329.175 C 191.826 329.959,194.049 333.034,196.195 336.009 C 204.806 347.945,206.067 349.667,206.198 349.667 C 206.273 349.667,206.315 332.783,206.292 312.148 L 206.250 274.630 204.667 273.710 C 203.796 273.204,201.696 271.987,200.000 271.005 C 198.304 270.023,195.267 268.260,193.250 267.086 C 191.233 265.913,188.196 264.151,186.500 263.170 C 184.804 262.190,181.054 260.012,178.167 258.331 C 175.279 256.650,172.242 254.887,171.417 254.415 C 170.592 253.942,167.554 252.180,164.667 250.500 C 161.779 248.820,158.029 246.644,156.333 245.663 C 154.637 244.683,151.600 242.920,149.583 241.747 C 147.567 240.573,144.529 238.811,142.833 237.830 C 141.137 236.849,138.100 235.087,136.083 233.914 C 134.067 232.740,131.029 230.976,129.333 229.994 C 127.638 229.012,125.087 227.534,123.667 226.710 C 122.246 225.886,119.433 224.257,117.417 223.089 C 115.400 221.922,113.487 220.808,113.167 220.614 L 112.583 220.262 113.007 220.839 " stroke="none" fill="#d9def7" fill-rule="evenodd"></path><path id="path1" d="M188.820 0.061 C 188.781 0.095,187.787 0.174,186.610 0.236 C 179.843 0.593,169.477 1.970,161.934 3.514 C 160.569 3.793,159.219 4.047,158.934 4.078 C 157.490 4.235,151.319 5.727,146.833 7.004 C 145.871 7.277,144.221 7.729,143.167 8.008 C 141.120 8.548,137.199 9.835,133.453 11.196 C 132.189 11.656,131.027 12.056,130.869 12.086 C 130.712 12.116,130.565 12.156,130.542 12.175 C 130.519 12.193,130.444 12.224,130.375 12.243 C 130.306 12.262,130.039 12.365,129.781 12.472 C 129.523 12.579,129.260 12.667,129.197 12.668 C 129.135 12.669,127.808 13.201,126.250 13.850 C 124.692 14.499,122.442 15.426,121.250 15.909 C 119.216 16.733,118.000 17.289,113.917 19.259 C 113.000 19.701,112.234 20.054,112.215 20.044 C 112.169 20.020,108.403 21.939,107.000 22.702 C 106.404 23.026,105.204 23.665,104.333 24.123 C 102.949 24.851,101.466 25.674,100.667 26.158 C 99.603 26.801,96.873 28.416,95.917 28.968 C 95.275 29.338,93.910 30.190,92.884 30.862 C 91.858 31.534,90.508 32.406,89.884 32.800 C 89.260 33.194,88.188 33.925,87.500 34.424 C 86.813 34.923,85.912 35.535,85.500 35.784 C 84.544 36.361,80.310 39.466,80.065 39.770 C 79.963 39.897,79.829 40.000,79.766 40.000 C 79.615 40.000,77.980 41.213,76.833 42.175 C 76.329 42.599,75.242 43.459,74.417 44.088 C 73.592 44.717,72.879 45.274,72.833 45.326 C 72.686 45.492,70.069 47.736,69.520 48.167 C 69.228 48.396,68.710 48.836,68.369 49.144 C 68.029 49.453,67.195 50.203,66.517 50.811 C 63.835 53.217,62.423 54.569,58.496 58.496 C 54.508 62.484,53.068 63.986,50.811 66.512 C 50.203 67.193,49.453 68.029,49.144 68.369 C 48.836 68.710,48.396 69.228,48.167 69.520 C 47.736 70.069,45.492 72.686,45.326 72.833 C 45.274 72.879,44.717 73.592,44.088 74.417 C 43.459 75.242,42.599 76.329,42.175 76.833 C 41.213 77.980,40.000 79.615,40.000 79.766 C 40.000 79.829,39.897 79.963,39.770 80.065 C 39.466 80.310,36.361 84.544,35.784 85.500 C 35.535 85.912,34.923 86.813,34.424 87.500 C 33.925 88.188,33.194 89.260,32.800 89.884 C 32.406 90.508,31.534 91.858,30.862 92.884 C 30.190 93.910,29.338 95.275,28.968 95.917 C 28.416 96.873,26.801 99.603,26.158 100.667 C 25.674 101.466,24.851 102.949,24.123 104.333 C 23.665 105.204,23.026 106.404,22.702 107.000 C 21.920 108.439,20.031 112.148,20.004 112.298 C 19.992 112.363,19.639 113.129,19.219 114.000 C 17.298 117.980,16.729 119.227,15.909 121.250 C 15.426 122.442,14.499 124.692,13.850 126.250 C 13.201 127.808,12.669 129.135,12.668 129.197 C 12.667 129.260,12.579 129.523,12.472 129.781 C 12.365 130.039,12.262 130.306,12.243 130.375 C 12.224 130.444,12.193 130.519,12.175 130.542 C 12.156 130.565,12.116 130.712,12.086 130.869 C 12.056 131.027,11.656 132.189,11.196 133.453 C 9.835 137.199,8.548 141.120,8.008 143.167 C 7.729 144.221,7.277 145.871,7.004 146.833 C 5.743 151.264,4.243 157.459,4.078 158.917 C 4.047 159.192,3.757 160.729,3.434 162.333 C 1.926 169.812,0.671 179.283,0.216 186.610 C 0.044 189.391,0.044 210.609,0.216 213.390 C 0.671 220.717,1.926 230.188,3.434 237.667 C 3.757 239.271,4.047 240.808,4.078 241.083 C 4.243 242.541,5.743 248.736,7.004 253.167 C 7.277 254.129,7.729 255.779,8.008 256.833 C 8.548 258.880,9.835 262.801,11.196 266.547 C 11.656 267.811,12.056 268.973,12.086 269.131 C 12.116 269.288,12.156 269.435,12.175 269.458 C 12.193 269.481,12.224 269.556,12.243 269.625 C 12.262 269.694,12.365 269.961,12.472 270.219 C 12.579 270.477,12.667 270.740,12.668 270.803 C 12.669 270.865,13.201 272.192,13.850 273.750 C 14.499 275.308,15.426 277.558,15.909 278.750 C 16.731 280.778,17.294 282.011,19.237 286.037 C 19.667 286.929,20.012 287.679,20.004 287.704 C 19.986 287.763,21.928 291.576,22.702 293.000 C 23.026 293.596,23.665 294.796,24.123 295.667 C 24.851 297.051,25.674 298.534,26.158 299.333 C 26.801 300.397,28.416 303.127,28.968 304.083 C 29.338 304.725,30.190 306.090,30.862 307.116 C 31.534 308.142,32.406 309.492,32.800 310.116 C 33.194 310.740,33.925 311.813,34.424 312.500 C 34.923 313.188,35.535 314.087,35.784 314.500 C 36.361 315.456,39.466 319.690,39.770 319.935 C 39.897 320.037,40.000 320.171,40.000 320.234 C 40.000 320.385,41.213 322.020,42.175 323.167 C 42.599 323.671,43.459 324.758,44.088 325.583 C 44.717 326.408,45.274 327.121,45.326 327.167 C 45.492 327.314,47.736 329.931,48.167 330.480 C 48.396 330.772,48.836 331.290,49.144 331.631 C 49.453 331.971,50.203 332.805,50.811 333.483 C 53.218 336.166,54.570 337.577,58.496 341.504 C 62.441 345.449,63.702 346.655,66.677 349.333 C 68.489 350.965,68.585 351.048,70.833 352.944 C 71.887 353.833,72.787 354.607,72.833 354.664 C 72.879 354.722,73.592 355.283,74.417 355.912 C 75.242 356.541,76.329 357.401,76.833 357.825 C 77.980 358.787,79.615 360.000,79.766 360.000 C 79.829 360.000,79.963 360.103,80.065 360.230 C 80.302 360.523,84.618 363.708,85.263 364.065 C 85.531 364.213,86.388 364.789,87.167 365.345 C 87.946 365.902,89.014 366.633,89.540 366.970 C 90.066 367.307,91.454 368.208,92.623 368.971 C 93.793 369.735,95.275 370.662,95.917 371.032 C 96.873 371.584,99.605 373.200,100.667 373.842 C 101.466 374.326,102.949 375.149,104.333 375.877 C 105.204 376.335,106.404 376.974,107.000 377.298 C 108.404 378.061,112.250 380.021,112.250 379.974 C 112.250 379.954,113.000 380.299,113.917 380.741 C 118.000 382.711,119.216 383.267,121.250 384.091 C 122.442 384.574,124.692 385.501,126.250 386.150 C 127.808 386.799,129.135 387.331,129.197 387.332 C 129.260 387.333,129.523 387.421,129.781 387.528 C 130.039 387.635,130.287 387.730,130.333 387.739 C 130.379 387.748,130.510 387.815,130.625 387.887 C 130.740 387.960,130.833 387.980,130.833 387.931 C 130.833 387.882,131.452 388.073,132.208 388.355 C 135.530 389.596,140.925 391.393,142.917 391.923 C 144.108 392.240,145.871 392.723,146.833 392.997 C 149.555 393.771,155.278 395.221,157.083 395.595 C 157.267 395.633,157.604 395.704,157.833 395.754 C 158.063 395.803,158.575 395.880,158.972 395.924 C 159.368 395.969,160.343 396.149,161.138 396.324 C 167.635 397.757,177.808 399.147,186.167 399.743 C 190.401 400.045,209.599 400.045,213.833 399.743 C 222.192 399.147,232.365 397.757,238.862 396.324 C 239.657 396.149,240.632 395.968,241.028 395.923 C 241.704 395.847,242.108 395.776,242.917 395.594 C 251.250 393.719,259.727 391.283,266.547 388.804 C 267.811 388.345,268.973 387.944,269.131 387.914 C 269.288 387.884,269.435 387.844,269.458 387.825 C 269.481 387.807,269.556 387.776,269.625 387.757 C 269.694 387.738,269.961 387.635,270.219 387.528 C 270.477 387.421,270.740 387.333,270.803 387.332 C 270.865 387.331,272.192 386.799,273.750 386.150 C 275.308 385.501,277.558 384.574,278.750 384.091 C 280.773 383.271,282.020 382.702,286.000 380.781 C 286.871 380.361,287.658 379.997,287.750 379.971 C 287.961 379.913,291.562 378.079,293.000 377.298 C 293.596 376.974,294.796 376.335,295.667 375.877 C 297.051 375.149,298.534 374.326,299.333 373.842 C 299.471 373.759,300.371 373.229,301.333 372.664 C 302.296 372.099,303.196 371.570,303.333 371.487 C 303.471 371.404,303.846 371.191,304.167 371.013 C 304.487 370.835,305.820 369.990,307.128 369.136 C 308.435 368.282,309.935 367.307,310.461 366.970 C 310.987 366.633,312.054 365.902,312.833 365.345 C 313.612 364.789,314.469 364.213,314.737 364.065 C 315.382 363.708,319.698 360.523,319.935 360.230 C 320.037 360.103,320.171 360.000,320.234 360.000 C 320.385 360.000,322.020 358.787,323.167 357.825 C 323.671 357.401,324.758 356.540,325.583 355.910 C 326.408 355.280,327.421 354.450,327.833 354.066 C 328.246 353.682,329.146 352.913,329.833 352.358 C 330.521 351.802,331.227 351.219,331.403 351.062 C 338.577 344.663,344.663 338.577,351.062 331.403 C 351.219 331.227,351.802 330.521,352.358 329.833 C 352.913 329.146,353.682 328.246,354.066 327.833 C 354.450 327.421,355.280 326.408,355.910 325.583 C 356.540 324.758,357.401 323.671,357.825 323.167 C 358.787 322.020,360.000 320.385,360.000 320.234 C 360.000 320.171,360.103 320.037,360.230 319.935 C 360.523 319.698,363.708 315.382,364.065 314.737 C 364.213 314.469,364.789 313.612,365.345 312.833 C 365.902 312.054,366.633 310.987,366.970 310.461 C 367.307 309.935,368.282 308.435,369.136 307.128 C 369.990 305.820,370.835 304.487,371.013 304.167 C 371.191 303.846,371.404 303.471,371.487 303.333 C 371.570 303.196,372.099 302.296,372.664 301.333 C 373.229 300.371,373.759 299.471,373.842 299.333 C 374.326 298.534,375.149 297.051,375.877 295.667 C 376.335 294.796,376.975 293.596,377.299 293.000 C 378.038 291.641,379.385 288.946,380.465 286.667 C 380.921 285.704,381.725 284.021,382.252 282.926 C 382.778 281.832,383.606 279.957,384.091 278.760 C 384.575 277.563,385.472 275.383,386.083 273.917 C 386.694 272.450,387.271 270.987,387.364 270.667 C 387.458 270.346,387.595 270.008,387.670 269.917 C 387.744 269.825,387.811 269.694,387.819 269.625 C 387.827 269.556,387.839 269.481,387.846 269.458 C 387.853 269.435,387.884 269.288,387.914 269.131 C 387.944 268.973,388.345 267.811,388.804 266.547 C 390.182 262.757,391.611 258.287,392.604 254.667 C 393.896 249.952,395.340 244.296,395.593 242.958 C 395.632 242.752,395.704 242.396,395.754 242.167 C 395.803 241.938,395.881 241.414,395.927 241.004 C 395.973 240.594,396.114 239.806,396.240 239.254 C 397.637 233.150,399.155 222.140,399.744 213.839 C 400.045 209.593,400.044 190.392,399.743 186.167 C 399.147 177.808,397.757 167.635,396.324 161.138 C 396.149 160.343,395.969 159.368,395.924 158.972 C 395.880 158.575,395.803 158.063,395.753 157.833 C 395.704 157.604,395.623 157.192,395.574 156.917 C 395.525 156.642,395.415 156.154,395.329 155.833 C 395.244 155.512,394.796 153.750,394.335 151.917 C 393.874 150.083,393.272 147.796,392.998 146.833 C 392.724 145.871,392.240 144.108,391.923 142.917 C 391.393 140.925,389.596 135.531,388.355 132.207 C 388.072 131.450,387.839 130.794,387.837 130.749 C 387.829 130.566,387.748 130.311,387.528 129.781 C 387.421 129.523,387.333 129.260,387.332 129.197 C 387.331 129.135,386.799 127.808,386.150 126.250 C 385.501 124.692,384.574 122.442,384.091 121.250 C 383.269 119.222,382.706 117.989,380.763 113.963 C 380.333 113.071,379.980 112.306,379.978 112.261 C 379.973 112.157,378.071 108.423,377.298 107.000 C 376.974 106.404,376.335 105.204,375.877 104.333 C 375.149 102.949,374.326 101.466,373.842 100.667 C 373.200 99.605,371.584 96.873,371.032 95.917 C 370.662 95.275,369.735 93.793,368.971 92.623 C 368.208 91.454,367.307 90.066,366.970 89.540 C 366.633 89.014,365.902 87.946,365.345 87.167 C 364.789 86.388,364.213 85.531,364.065 85.263 C 363.708 84.618,360.523 80.302,360.230 80.065 C 360.103 79.963,360.000 79.829,360.000 79.766 C 360.000 79.615,358.787 77.980,357.825 76.833 C 357.401 76.329,356.540 75.242,355.910 74.417 C 355.280 73.592,354.450 72.579,354.066 72.167 C 353.682 71.754,352.912 70.854,352.355 70.167 C 351.280 68.840,351.267 68.825,349.333 66.677 C 346.654 63.701,345.451 62.444,341.587 58.583 C 337.436 54.435,336.019 53.076,333.318 50.653 C 331.343 48.882,331.481 49.002,329.167 47.054 C 328.112 46.166,327.212 45.393,327.167 45.336 C 327.121 45.278,326.408 44.717,325.583 44.088 C 324.758 43.459,323.671 42.599,323.167 42.175 C 322.020 41.213,320.385 40.000,320.234 40.000 C 320.171 40.000,320.037 39.897,319.935 39.770 C 319.690 39.466,315.456 36.361,314.500 35.784 C 314.087 35.535,313.188 34.923,312.500 34.424 C 311.813 33.925,310.740 33.194,310.117 32.800 C 309.494 32.406,308.031 31.460,306.867 30.697 C 305.703 29.935,304.487 29.166,304.167 28.987 C 303.846 28.809,303.471 28.596,303.333 28.513 C 303.196 28.430,302.296 27.901,301.333 27.336 C 300.371 26.771,299.471 26.241,299.333 26.158 C 298.534 25.674,297.051 24.851,295.667 24.123 C 294.796 23.665,293.596 23.026,293.000 22.702 C 291.561 21.920,287.852 20.031,287.702 20.004 C 287.637 19.992,286.871 19.639,286.000 19.219 C 282.020 17.298,280.773 16.729,278.750 15.909 C 277.558 15.426,275.308 14.499,273.750 13.850 C 272.192 13.201,270.865 12.669,270.803 12.668 C 270.740 12.667,270.477 12.579,270.219 12.472 C 269.961 12.365,269.694 12.262,269.625 12.243 C 269.556 12.224,269.481 12.193,269.458 12.175 C 269.435 12.156,269.288 12.116,269.131 12.086 C 268.973 12.056,267.811 11.655,266.547 11.196 C 261.185 9.247,256.248 7.753,248.750 5.810 C 246.628 5.260,245.582 5.008,242.917 4.405 C 242.229 4.250,241.567 4.133,241.066 4.078 C 240.781 4.047,239.431 3.793,238.066 3.514 C 231.870 2.246,225.132 1.270,217.917 0.596 C 216.450 0.458,214.838 0.300,214.333 0.244 C 213.344 0.134,188.935 -0.041,188.820 0.061 M207.496 51.925 C 208.107 52.929,209.621 55.400,210.861 57.417 C 212.868 60.682,215.509 64.985,223.135 77.417 C 224.372 79.433,226.074 82.208,226.918 83.583 C 227.762 84.958,229.475 87.752,230.726 89.792 C 231.977 91.831,234.023 95.169,235.274 97.208 C 238.634 102.687,240.354 105.491,242.919 109.667 C 244.186 111.729,246.234 115.067,247.470 117.083 C 251.898 124.308,252.814 125.802,255.086 129.500 C 259.418 136.554,261.380 139.751,263.166 142.667 C 264.149 144.271,265.876 147.083,267.003 148.917 C 268.130 150.750,269.855 153.563,270.836 155.167 C 272.525 157.930,273.432 159.408,278.915 168.333 C 280.182 170.396,282.022 173.396,283.004 175.000 C 285.437 178.975,288.323 183.681,291.081 188.167 C 292.349 190.229,294.075 193.042,294.916 194.417 C 295.757 195.792,297.215 198.172,298.154 199.707 C 299.094 201.241,299.834 202.580,299.801 202.682 C 299.748 202.840,296.522 204.737,281.000 213.736 C 279.854 214.401,276.742 216.207,274.083 217.751 C 271.425 219.294,268.387 221.057,267.333 221.667 C 266.279 222.278,263.054 224.151,260.167 225.829 C 257.279 227.508,252.629 230.209,249.833 231.832 C 247.037 233.455,242.387 236.156,239.500 237.834 C 236.612 239.513,231.963 242.213,229.167 243.833 C 226.371 245.454,221.721 248.154,218.833 249.833 C 215.946 251.511,211.916 253.853,209.877 255.035 L 206.171 257.185 203.627 255.734 C 202.228 254.936,199.846 253.558,198.333 252.673 C 196.821 251.787,194.046 250.174,192.167 249.088 C 190.287 248.002,187.850 246.586,186.750 245.941 C 185.650 245.296,183.137 243.835,181.167 242.694 C 179.196 241.554,175.971 239.686,174.000 238.543 C 172.029 237.400,169.479 235.923,168.333 235.260 C 165.675 233.724,161.715 231.420,158.000 229.248 C 156.396 228.310,153.358 226.545,151.250 225.327 C 149.142 224.109,145.617 222.067,143.417 220.790 C 136.971 217.047,134.477 215.600,130.500 213.293 C 128.438 212.096,125.175 210.200,123.250 209.079 C 121.325 207.959,118.250 206.175,116.417 205.114 C 112.091 202.613,112.397 202.850,112.711 202.243 C 112.851 201.972,113.621 200.700,114.422 199.417 C 115.223 198.133,116.494 196.071,117.245 194.833 C 117.997 193.596,119.650 190.896,120.918 188.833 C 122.187 186.771,123.913 183.958,124.754 182.583 C 125.595 181.208,127.319 178.396,128.586 176.333 C 133.846 167.768,135.468 165.124,136.919 162.750 C 138.350 160.408,140.238 157.333,145.053 149.500 C 146.152 147.712,147.854 144.938,148.835 143.333 C 152.921 136.654,154.645 133.848,155.387 132.667 C 155.819 131.979,157.178 129.767,158.406 127.750 C 160.911 123.638,163.614 119.230,166.583 114.416 C 167.683 112.633,169.408 109.821,170.417 108.168 C 171.425 106.515,173.117 103.757,174.176 102.040 C 176.281 98.626,179.460 93.448,180.340 92.000 C 180.949 90.998,183.481 86.873,185.660 83.333 C 187.250 80.751,190.637 75.216,192.495 72.167 C 193.192 71.021,194.367 69.108,195.105 67.917 C 197.640 63.824,201.339 57.791,204.482 52.624 C 205.361 51.180,206.149 50.022,206.233 50.050 C 206.317 50.078,206.886 50.922,207.496 51.925 M116.667 222.499 C 118.179 223.391,120.204 224.567,121.167 225.114 C 122.129 225.660,124.117 226.806,125.583 227.661 C 132.404 231.638,140.655 236.431,144.667 238.746 C 146.546 239.831,149.396 241.485,151.000 242.421 C 156.950 245.896,159.294 247.257,161.000 248.226 C 161.962 248.774,163.987 249.947,165.500 250.834 C 167.012 251.721,170.050 253.485,172.250 254.756 C 174.450 256.026,177.542 257.819,179.122 258.741 C 180.701 259.663,183.664 261.383,185.705 262.564 C 187.746 263.745,190.579 265.390,192.000 266.221 C 193.421 267.051,195.708 268.379,197.083 269.172 C 198.458 269.965,201.083 271.481,202.917 272.540 L 206.250 274.468 207.167 273.953 C 208.094 273.432,213.513 270.293,219.167 267.001 C 220.862 266.013,222.963 264.798,223.833 264.301 C 225.441 263.382,228.728 261.474,233.250 258.833 C 238.097 256.003,241.108 254.260,243.410 252.950 C 244.689 252.222,246.002 251.459,246.326 251.254 C 246.651 251.050,248.154 250.171,249.667 249.302 C 252.268 247.807,253.389 247.158,260.833 242.830 C 262.529 241.844,265.567 240.082,267.583 238.914 C 269.600 237.747,272.375 236.133,273.750 235.328 C 275.125 234.522,277.225 233.308,278.417 232.629 C 279.608 231.950,281.783 230.695,283.250 229.840 C 294.823 223.093,298.930 220.711,299.511 220.411 L 300.066 220.124 299.757 220.604 C 299.586 220.867,297.828 223.324,295.849 226.062 C 293.869 228.801,291.461 232.138,290.496 233.479 C 289.531 234.820,286.949 238.392,284.758 241.417 C 282.568 244.442,279.801 248.267,278.609 249.917 C 277.418 251.567,275.425 254.325,274.180 256.045 C 272.935 257.766,271.354 259.959,270.667 260.919 C 269.979 261.878,267.504 265.301,265.167 268.525 C 262.829 271.749,259.938 275.744,258.743 277.402 C 252.850 285.574,249.462 290.263,248.196 292.000 C 247.628 292.779,246.000 295.029,244.578 297.000 C 240.682 302.401,239.558 303.958,237.058 307.417 C 235.799 309.158,233.795 311.933,232.603 313.583 C 231.412 315.233,229.720 317.567,228.844 318.769 C 227.967 319.972,226.447 322.072,225.466 323.436 C 222.375 327.733,219.066 332.318,217.002 335.167 C 215.905 336.679,214.143 339.117,213.085 340.583 C 212.027 342.050,210.313 344.412,209.276 345.833 C 208.239 347.254,207.149 348.773,206.854 349.208 C 206.166 350.223,206.289 350.284,204.823 348.204 C 204.129 347.221,202.558 345.029,201.332 343.333 C 200.105 341.637,198.156 338.938,197.000 337.333 C 191.908 330.267,188.184 325.121,186.990 323.500 C 186.281 322.537,185.299 321.177,184.809 320.476 C 184.318 319.776,183.135 318.126,182.181 316.810 C 181.226 315.494,179.631 313.292,178.637 311.917 C 177.644 310.542,175.932 308.179,174.833 306.667 C 173.734 305.154,171.624 302.229,170.144 300.167 C 168.665 298.104,166.879 295.629,166.176 294.667 C 165.473 293.704,164.494 292.354,163.999 291.667 C 163.504 290.979,162.123 289.067,160.930 287.417 C 159.737 285.767,157.971 283.322,157.005 281.983 C 152.138 275.235,149.503 271.589,144.853 265.167 C 143.241 262.939,139.311 257.485,137.167 254.500 C 136.673 253.813,135.585 252.313,134.750 251.167 C 133.915 250.021,132.827 248.521,132.333 247.833 C 131.839 247.146,130.161 244.821,128.605 242.667 C 127.049 240.512,125.128 237.850,124.336 236.750 C 121.026 232.152,116.173 225.442,114.753 223.500 C 112.860 220.910,112.500 220.392,112.500 220.263 C 112.500 220.104,113.670 220.732,116.667 222.499 " stroke="none" fill="#647cec" fill-rule="evenodd"></path><path id="path2" d="M206.292 209.070 C 206.269 235.506,206.287 257.113,206.333 257.087 C 208.230 255.990,214.874 252.134,218.833 249.832 C 221.721 248.154,226.371 245.454,229.167 243.833 C 231.963 242.213,236.612 239.513,239.500 237.834 C 242.387 236.156,247.037 233.455,249.833 231.832 C 252.629 230.209,257.279 227.508,260.167 225.829 C 263.054 224.151,266.279 222.278,267.333 221.667 C 268.387 221.057,271.425 219.294,274.083 217.751 C 279.755 214.457,280.185 214.208,291.167 207.844 C 299.528 202.999,300.077 202.667,299.711 202.667 C 299.607 202.667,297.960 201.961,296.052 201.098 C 294.144 200.235,291.458 199.029,290.083 198.416 C 288.708 197.804,285.146 196.212,282.167 194.878 C 279.188 193.545,275.025 191.686,272.917 190.747 C 267.040 188.130,264.791 187.123,260.033 184.977 C 257.622 183.890,255.619 183.000,255.581 183.000 C 255.544 183.000,253.804 182.221,251.715 181.270 C 249.626 180.318,247.204 179.236,246.333 178.866 C 245.463 178.495,243.662 177.690,242.333 177.077 C 241.004 176.464,238.754 175.453,237.333 174.830 C 235.912 174.207,232.463 172.672,229.667 171.419 C 226.871 170.165,223.233 168.540,221.583 167.806 C 219.933 167.072,217.121 165.809,215.333 164.999 C 213.546 164.189,211.221 163.153,210.167 162.698 C 209.112 162.242,207.819 161.675,207.292 161.437 L 206.334 161.005 206.292 209.070 " stroke="none" fill="#8394ec" fill-rule="evenodd"></path><path id="path3" d="M206.167 209.033 C 206.121 235.498,206.140 257.094,206.209 257.025 C 206.278 256.956,206.315 235.303,206.292 208.908 L 206.250 160.917 206.167 209.033 M209.833 162.583 C 210.063 162.714,210.325 162.822,210.417 162.822 C 210.508 162.822,210.396 162.714,210.167 162.583 C 209.938 162.452,209.675 162.345,209.583 162.345 C 209.492 162.345,209.604 162.452,209.833 162.583 M290.000 198.417 C 290.229 198.548,290.492 198.655,290.583 198.655 C 290.675 198.655,290.563 198.548,290.333 198.417 C 290.104 198.286,289.842 198.178,289.750 198.178 C 289.658 198.178,289.771 198.286,290.000 198.417 " stroke="none" fill="#98aaf3" fill-rule="evenodd"></path><path id="path4" d="M206.125 50.277 C 206.291 50.344,206.333 61.566,206.333 105.607 L 206.333 160.853 204.375 161.778 C 203.298 162.287,201.954 162.880,201.388 163.096 C 200.822 163.311,198.722 164.248,196.721 165.178 C 194.720 166.108,192.633 167.041,192.083 167.252 C 191.533 167.463,189.433 168.401,187.417 169.336 C 185.400 170.271,183.225 171.245,182.583 171.500 C 181.942 171.755,179.803 172.712,177.830 173.625 C 175.857 174.539,174.057 175.344,173.830 175.414 C 173.603 175.484,171.486 176.432,169.125 177.520 C 166.765 178.609,164.768 179.500,164.688 179.500 C 164.609 179.500,162.511 180.438,160.026 181.583 C 157.542 182.729,155.444 183.667,155.363 183.667 C 155.282 183.667,153.515 184.456,151.435 185.421 C 149.356 186.386,147.104 187.394,146.432 187.661 C 145.760 187.928,144.056 188.686,142.647 189.345 C 139.626 190.758,139.021 191.027,137.250 191.752 C 136.517 192.052,134.284 193.056,132.288 193.982 C 130.293 194.909,128.601 195.667,128.528 195.667 C 128.455 195.667,126.676 196.462,124.573 197.435 C 122.470 198.407,120.225 199.412,119.583 199.669 C 118.942 199.925,117.217 200.692,115.750 201.374 C 114.283 202.056,112.975 202.649,112.843 202.692 C 112.708 202.737,113.659 203.380,115.010 204.158 C 116.334 204.921,118.729 206.311,120.333 207.248 C 121.938 208.185,124.975 209.951,127.083 211.173 C 135.648 216.137,138.215 217.627,141.000 219.251 C 142.604 220.186,145.829 222.058,148.167 223.412 C 150.504 224.765,153.542 226.528,154.917 227.329 C 161.952 231.427,166.573 234.109,171.583 237.001 C 174.055 238.428,176.660 239.942,182.333 243.250 C 183.938 244.185,186.975 245.948,189.083 247.168 C 194.348 250.213,199.521 253.219,203.033 255.274 C 204.655 256.223,206.024 257.000,206.075 257.000 C 206.125 257.000,206.167 235.392,206.167 208.982 L 206.167 160.964 206.542 161.058 C 206.748 161.110,208.529 161.875,210.500 162.759 C 214.843 164.707,222.058 167.934,227.250 170.250 C 232.460 172.575,239.420 175.686,245.333 178.333 C 248.037 179.543,251.563 181.115,253.167 181.825 C 254.771 182.536,257.171 183.610,258.500 184.212 C 259.829 184.814,262.267 185.906,263.917 186.638 C 265.567 187.371,268.754 188.792,271.000 189.798 C 273.246 190.803,277.558 192.731,280.583 194.082 C 283.608 195.433,287.921 197.361,290.167 198.366 C 299.881 202.715,300.087 202.798,299.541 202.129 C 299.445 202.012,298.449 200.417,297.326 198.583 C 292.749 191.108,291.625 189.274,289.717 186.167 C 286.249 180.517,283.180 175.514,281.333 172.500 C 280.350 170.896,278.625 168.083,277.499 166.250 C 276.373 164.417,274.648 161.604,273.665 160.000 C 272.683 158.396,270.957 155.583,269.830 153.750 C 268.703 151.917,266.792 148.804,265.583 146.833 C 264.374 144.862,261.637 140.400,259.500 136.917 C 257.363 133.433,254.602 128.933,253.365 126.917 C 252.128 124.900,250.426 122.125,249.582 120.750 C 248.738 119.375,247.036 116.600,245.800 114.583 C 244.563 112.567,242.515 109.229,241.248 107.167 C 239.981 105.104,238.255 102.292,237.413 100.917 C 234.548 96.240,231.391 91.092,229.081 87.333 C 227.814 85.271,226.089 82.458,225.248 81.083 C 224.406 79.708,222.496 76.596,221.002 74.167 C 219.508 71.737,217.782 68.925,217.167 67.917 C 216.551 66.908,215.036 64.433,213.800 62.417 C 212.564 60.400,210.369 56.819,208.922 54.458 C 207.475 52.098,206.207 50.173,206.104 50.180 C 205.987 50.188,205.995 50.225,206.125 50.277 M299.412 220.561 C 299.231 220.686,296.196 222.459,292.667 224.500 C 289.137 226.541,285.387 228.715,284.333 229.331 C 283.279 229.948,280.692 231.451,278.583 232.672 C 276.475 233.893,273.438 235.655,271.833 236.587 C 270.229 237.520,267.192 239.282,265.083 240.501 C 262.975 241.721,259.938 243.484,258.333 244.419 C 256.729 245.353,253.692 247.116,251.583 248.337 C 249.475 249.557,246.137 251.492,244.167 252.636 C 235.937 257.413,233.390 258.890,229.750 260.997 C 227.642 262.217,224.604 263.980,223.000 264.915 C 221.396 265.849,218.358 267.612,216.250 268.832 C 214.142 270.052,211.089 271.826,209.467 272.775 C 207.845 273.724,206.457 274.500,206.384 274.500 C 206.310 274.500,206.269 291.389,206.292 312.031 C 206.326 341.975,206.293 349.593,206.126 349.711 C 205.985 349.810,205.981 349.841,206.113 349.804 C 206.286 349.757,208.042 347.378,213.659 339.583 C 214.452 338.483,215.592 336.908,216.192 336.083 C 217.376 334.456,223.019 326.642,225.339 323.417 C 226.131 322.317,227.892 319.879,229.252 318.000 C 230.613 316.121,232.486 313.533,233.415 312.250 C 234.344 310.967,235.594 309.242,236.194 308.417 C 237.657 306.402,243.631 298.123,244.973 296.250 C 245.564 295.425,246.623 293.962,247.327 293.000 C 248.032 292.037,249.498 290.012,250.586 288.500 C 251.674 286.987,253.625 284.287,254.922 282.500 C 256.218 280.712,259.442 276.250,262.086 272.583 C 264.730 268.917,267.281 265.392,267.755 264.750 C 268.513 263.721,273.343 257.035,277.506 251.250 C 278.297 250.150,280.844 246.625,283.165 243.417 C 285.486 240.208,290.011 233.946,293.220 229.500 C 296.430 225.054,299.239 221.173,299.464 220.875 C 299.914 220.279,299.904 220.220,299.412 220.561 " stroke="none" fill="#acbcf4" fill-rule="evenodd"></path></g></svg>