<svg xmlns="http://www.w3.org/2000/svg" xmlns:xlink="http://www.w3.org/1999/xlink" width="1024" zoomAndPan="magnify" viewBox="0 0 768 767.999994" height="1024" preserveAspectRatio="xMidYMid meet" version="1.0"><defs><g/><clipPath id="66445fed09"><path d="M 21.449219 10.222656 L 752.207031 10.222656 L 752.207031 740.980469 L 21.449219 740.980469 Z M 21.449219 10.222656 " clip-rule="nonzero"/></clipPath><clipPath id="25b0714007"><path d="M 386.828125 10.222656 C 185.035156 10.222656 21.449219 173.808594 21.449219 375.601562 C 21.449219 577.394531 185.035156 740.980469 386.828125 740.980469 C 588.621094 740.980469 752.207031 577.394531 752.207031 375.601562 C 752.207031 173.808594 588.621094 10.222656 386.828125 10.222656 Z M 386.828125 10.222656 " clip-rule="nonzero"/></clipPath><clipPath id="6da92b9acb"><path d="M 0.449219 0.222656 L 731.207031 0.222656 L 731.207031 730.980469 L 0.449219 730.980469 Z M 0.449219 0.222656 " clip-rule="nonzero"/></clipPath><clipPath id="4ef1d2b0d5"><path d="M 365.828125 0.222656 C 164.035156 0.222656 0.449219 163.808594 0.449219 365.601562 C 0.449219 567.394531 164.035156 730.980469 365.828125 730.980469 C 567.621094 730.980469 731.207031 567.394531 731.207031 365.601562 C 731.207031 163.808594 567.621094 0.222656 365.828125 0.222656 Z M 365.828125 0.222656 " clip-rule="nonzero"/></clipPath><clipPath id="e52551c39a"><rect x="0" width="732" y="0" height="731"/></clipPath><clipPath id="76909503a1"><path d="M 67.6875 50.199219 L 706 50.199219 L 706 375.601562 L 67.6875 375.601562 Z M 67.6875 50.199219 " clip-rule="nonzero"/></clipPath><clipPath id="dfd1fa6699"><path d="M 705.972656 375.601562 C 705.972656 198.359375 560.664062 50.199219 386.828125 50.199219 C 212.996094 50.199219 67.6875 198.359375 67.6875 375.601562 Z M 705.972656 375.601562 " clip-rule="nonzero"/></clipPath><clipPath id="4fdc5e5bf9"><path d="M 0.6875 0.199219 L 639 0.199219 L 639 325.601562 L 0.6875 325.601562 Z M 0.6875 0.199219 " clip-rule="nonzero"/></clipPath><clipPath id="fab71d112d"><path d="M 638.972656 325.601562 C 638.972656 148.359375 493.664062 0.199219 319.828125 0.199219 C 145.996094 0.199219 0.6875 148.359375 0.6875 325.601562 Z M 638.972656 325.601562 " clip-rule="nonzero"/></clipPath><clipPath id="862648a1d0"><rect x="0" width="639" y="0" height="326"/></clipPath><clipPath id="671f1cd44b"><path d="M 422.121094 407.285156 L 705.964844 407.285156 L 705.964844 692 L 422.121094 692 Z M 422.121094 407.285156 " clip-rule="nonzero"/></clipPath><clipPath id="14f69aae96"><path d="M 705.964844 407.285156 C 705.964844 482.039062 675.6875 555.136719 622.828125 607.996094 C 569.96875 660.855469 496.875 691.132812 422.121094 691.132812 L 422.121094 407.285156 Z M 705.964844 407.285156 " clip-rule="nonzero"/></clipPath><clipPath id="414d0ae608"><path d="M 0.121094 0.285156 L 283.964844 0.285156 L 283.964844 284.199219 L 0.121094 284.199219 Z M 0.121094 0.285156 " clip-rule="nonzero"/></clipPath><clipPath id="38a5525170"><path d="M 283.964844 0.285156 C 283.964844 75.039062 253.6875 148.136719 200.828125 200.996094 C 147.96875 253.855469 74.875 284.132812 0.121094 284.132812 L 0.121094 0.285156 Z M 283.964844 0.285156 " clip-rule="nonzero"/></clipPath><clipPath id="8d4b162297"><rect x="0" width="284" y="0" height="285"/></clipPath><clipPath id="311f8e4d72"><path d="M 168 396 L 517 396 L 517 702 L 168 702 Z M 168 396 " clip-rule="nonzero"/></clipPath><clipPath id="91afc1d3a6"><path d="M 81.886719 536.335938 L 255.566406 287.261719 L 573.71875 509.109375 L 400.039062 758.183594 Z M 81.886719 536.335938 " clip-rule="nonzero"/></clipPath><clipPath id="0c549a88e1"><path d="M 457.925781 428.367188 C 523.699219 474.230469 534.253906 564.457031 486.292969 633.238281 C 438.335938 702.019531 350.019531 723.304688 284.25 677.441406 C 199.425781 618.292969 168.726562 411.800781 168.726562 411.800781 C 168.726562 411.800781 373.101562 369.21875 457.925781 428.367188 Z M 457.925781 428.367188 " clip-rule="nonzero"/></clipPath><clipPath id="07b461432a"><path d="M 0.71875 0 L 349 0 L 349 306 L 0.71875 306 Z M 0.71875 0 " clip-rule="nonzero"/></clipPath><clipPath id="ed4b1459aa"><path d="M -86.113281 140.335938 L 87.566406 -108.738281 L 405.71875 113.109375 L 232.039062 362.183594 Z M -86.113281 140.335938 " clip-rule="nonzero"/></clipPath><clipPath id="c2710d9647"><path d="M 289.925781 32.367188 C 355.699219 78.230469 366.253906 168.457031 318.292969 237.238281 C 270.335938 306.019531 182.019531 327.304688 116.25 281.441406 C 31.425781 222.292969 0.726562 15.800781 0.726562 15.800781 C 0.726562 15.800781 205.101562 -26.78125 289.925781 32.367188 Z M 289.925781 32.367188 " clip-rule="nonzero"/></clipPath><clipPath id="f389ec90d4"><rect x="0" width="349" y="0" height="306"/></clipPath><clipPath id="8a080006dc"><path d="M 68 407 L 472 407 L 472 675 L 68 675 Z M 68 407 " clip-rule="nonzero"/></clipPath><clipPath id="8c79627b30"><path d="M 15.792969 533.964844 L 121.152344 306.6875 L 511.78125 487.777344 L 406.421875 715.054688 Z M 15.792969 533.964844 " clip-rule="nonzero"/></clipPath><clipPath id="631cbb2501"><path d="M 68.472656 420.328125 C 165.265625 404.929688 317.042969 397.5 401 436.421875 C 462.144531 464.765625 488.175781 538.703125 459.101562 601.414062 C 430.027344 664.128906 356.785156 692.042969 295.640625 663.695312 C 211.683594 624.777344 199.820312 457.117188 68.472656 420.328125 Z M 68.472656 420.328125 " clip-rule="nonzero"/></clipPath><clipPath id="431a9555fe"><path d="M 0.398438 0 L 404 0 L 404 268 L 0.398438 268 Z M 0.398438 0 " clip-rule="nonzero"/></clipPath><clipPath id="b9270569d8"><path d="M -52.207031 126.964844 L 53.152344 -100.3125 L 443.78125 80.777344 L 338.421875 308.054688 Z M -52.207031 126.964844 " clip-rule="nonzero"/></clipPath><clipPath id="c8490b558a"><path d="M 0.472656 13.328125 C 97.265625 -2.070312 249.042969 -9.5 333 29.421875 C 394.144531 57.765625 420.175781 131.703125 391.101562 194.414062 C 362.027344 257.128906 288.785156 285.042969 227.640625 256.695312 C 143.683594 217.777344 131.820312 50.117188 0.472656 13.328125 Z M 0.472656 13.328125 " clip-rule="nonzero"/></clipPath><clipPath id="957fb455b0"><rect x="0" width="404" y="0" height="268"/></clipPath><clipPath id="5766fe9df0"><path d="M 291.890625 470.710938 L 403 470.710938 L 403 624.460938 L 291.890625 624.460938 Z M 291.890625 470.710938 " clip-rule="nonzero"/></clipPath></defs><g clip-path="url(#66445fed09)"><g clip-path="url(#25b0714007)"><g transform="matrix(1, 0, 0, 1, 21, 10)"><g clip-path="url(#e52551c39a)"><g clip-path="url(#6da92b9acb)"><g clip-path="url(#4ef1d2b0d5)"><path fill="#010203" d="M 0.449219 0.222656 L 731.207031 0.222656 L 731.207031 730.980469 L 0.449219 730.980469 Z M 0.449219 0.222656 " fill-opacity="1" fill-rule="nonzero"/></g></g></g></g></g></g><g clip-path="url(#76909503a1)"><g clip-path="url(#dfd1fa6699)"><g transform="matrix(1, 0, 0, 1, 67, 50)"><g clip-path="url(#862648a1d0)"><g clip-path="url(#4fdc5e5bf9)"><g clip-path="url(#fab71d112d)"><path fill="#ffde59" d="M 0.6875 0.199219 L 638.777344 0.199219 L 638.777344 325.601562 L 0.6875 325.601562 Z M 0.6875 0.199219 " fill-opacity="1" fill-rule="nonzero"/></g></g></g></g></g></g><g clip-path="url(#671f1cd44b)"><g clip-path="url(#14f69aae96)"><g transform="matrix(1, 0, 0, 1, 422, 407)"><g clip-path="url(#8d4b162297)"><g clip-path="url(#414d0ae608)"><g clip-path="url(#38a5525170)"><path fill="#ffde59" d="M 283.964844 284.132812 L 0.121094 284.132812 L 0.121094 0.285156 L 283.964844 0.285156 Z M 283.964844 284.132812 " fill-opacity="1" fill-rule="nonzero"/></g></g></g></g></g></g><g clip-path="url(#311f8e4d72)"><g clip-path="url(#91afc1d3a6)"><g clip-path="url(#0c549a88e1)"><g transform="matrix(1, 0, 0, 1, 168, 396)"><g clip-path="url(#f389ec90d4)"><g clip-path="url(#07b461432a)"><g clip-path="url(#ed4b1459aa)"><g clip-path="url(#c2710d9647)"><path fill="#000000" d="M -86.113281 140.335938 L 87.566406 -108.738281 L 404.746094 112.429688 L 231.066406 361.503906 Z M -86.113281 140.335938 " fill-opacity="1" fill-rule="nonzero"/></g></g></g></g></g></g></g></g><g clip-path="url(#8a080006dc)"><g clip-path="url(#8c79627b30)"><g clip-path="url(#631cbb2501)"><g transform="matrix(1, 0, 0, 1, 68, 407)"><g clip-path="url(#957fb455b0)"><g clip-path="url(#431a9555fe)"><g clip-path="url(#b9270569d8)"><g clip-path="url(#c8490b558a)"><path fill="#e48033" d="M -52.207031 126.964844 L 53.152344 -100.3125 L 443.78125 80.777344 L 338.421875 308.054688 Z M -52.207031 126.964844 " fill-opacity="1" fill-rule="nonzero"/></g></g></g></g></g></g></g></g><g clip-path="url(#5766fe9df0)"><path fill="#100f0d" d="M 334.976562 584.007812 L 334.984375 552.800781 C 344.589844 552.796875 374.722656 550.035156 374.726562 568.398438 C 374.730469 586.003906 344.589844 584 334.976562 584.007812 Z M 334.984375 510.207031 C 342.980469 510.207031 368.125 507.660156 368.128906 524.363281 C 368.125 540.382812 342.988281 538.511719 334.984375 538.511719 Z M 382.398438 541.878906 C 390.617188 537.691406 395.757812 530.316406 394.554688 518.027344 C 392.941406 501.238281 378.445312 495.605469 360.148438 494.003906 L 360.144531 470.710938 L 345.96875 470.710938 L 345.960938 493.390625 C 342.230469 493.390625 338.429688 493.464844 334.644531 493.539062 L 334.640625 470.714844 L 320.476562 470.714844 L 320.472656 494 C 317.40625 494.0625 314.390625 494.121094 311.445312 494.121094 L 311.445312 494.054688 L 291.890625 494.042969 L 291.894531 509.183594 C 291.894531 509.183594 302.363281 508.988281 302.191406 509.175781 C 307.933594 509.183594 309.804688 512.515625 310.347656 515.394531 L 310.351562 541.925781 L 310.351562 579.195312 C 310.097656 581.003906 309.035156 583.890625 305.019531 583.894531 C 305.203125 584.054688 294.707031 583.890625 294.707031 583.890625 L 291.894531 600.820312 L 310.339844 600.820312 C 313.777344 600.824219 317.15625 600.878906 320.46875 600.90625 L 320.480469 624.457031 L 334.640625 624.460938 L 334.636719 601.15625 C 338.535156 601.234375 342.292969 601.269531 345.96875 601.265625 L 345.964844 624.460938 L 360.140625 624.460938 L 360.148438 600.949219 C 383.976562 599.578125 400.660156 593.574219 402.734375 571.191406 C 404.40625 553.167969 395.925781 545.125 382.398438 541.878906 " fill-opacity="1" fill-rule="nonzero"/></g><g fill="#000000" fill-opacity="1"><g transform="translate(117.147477, 338.698846)"><g><path d="M 117.96875 -123.609375 L 117.96875 0 L 94.890625 0 L 94.890625 -54.03125 L 36.84375 -54.03125 L 36.84375 0 L 13.765625 0 L 13.765625 -123.609375 L 36.84375 -123.609375 L 36.84375 -70.4375 L 94.890625 -70.4375 L 94.890625 -123.609375 Z M 117.96875 -123.609375 "/></g></g></g><g fill="#000000" fill-opacity="1"><g transform="translate(267.512172, 338.698846)"><g><path d="M 131.640625 -61.8125 C 131.640625 -52.75 130.144531 -44.351562 127.15625 -36.625 C 124.164062 -28.90625 119.929688 -22.222656 114.453125 -16.578125 C 108.984375 -10.941406 102.398438 -6.539062 94.703125 -3.375 C 87.015625 -0.207031 78.472656 1.375 69.078125 1.375 C 59.722656 1.375 51.195312 -0.207031 43.5 -3.375 C 35.8125 -6.539062 29.21875 -10.941406 23.71875 -16.578125 C 18.21875 -22.222656 13.957031 -28.90625 10.9375 -36.625 C 7.914062 -44.351562 6.40625 -52.75 6.40625 -61.8125 C 6.40625 -70.863281 7.914062 -79.25 10.9375 -86.96875 C 13.957031 -94.695312 18.21875 -101.378906 23.71875 -107.015625 C 29.21875 -112.660156 35.8125 -117.066406 43.5 -120.234375 C 51.195312 -123.398438 59.722656 -124.984375 69.078125 -124.984375 C 75.335938 -124.984375 81.234375 -124.253906 86.765625 -122.796875 C 92.296875 -121.347656 97.367188 -119.296875 101.984375 -116.640625 C 106.597656 -113.992188 110.742188 -110.773438 114.421875 -106.984375 C 118.097656 -103.191406 121.21875 -98.957031 123.78125 -94.28125 C 126.34375 -89.613281 128.289062 -84.539062 129.625 -79.0625 C 130.96875 -73.59375 131.640625 -67.84375 131.640625 -61.8125 Z M 108.140625 -61.8125 C 108.140625 -68.59375 107.226562 -74.675781 105.40625 -80.0625 C 103.582031 -85.445312 100.988281 -90.019531 97.625 -93.78125 C 94.257812 -97.539062 90.164062 -100.414062 85.34375 -102.40625 C 80.53125 -104.40625 75.109375 -105.40625 69.078125 -105.40625 C 63.035156 -105.40625 57.601562 -104.40625 52.78125 -102.40625 C 47.96875 -100.414062 43.863281 -97.539062 40.46875 -93.78125 C 37.082031 -90.019531 34.476562 -85.445312 32.65625 -80.0625 C 30.832031 -74.675781 29.921875 -68.59375 29.921875 -61.8125 C 29.921875 -55.019531 30.832031 -48.929688 32.65625 -43.546875 C 34.476562 -38.160156 37.082031 -33.601562 40.46875 -29.875 C 43.863281 -26.144531 47.96875 -23.28125 52.78125 -21.28125 C 57.601562 -19.289062 63.035156 -18.296875 69.078125 -18.296875 C 75.109375 -18.296875 80.53125 -19.289062 85.34375 -21.28125 C 90.164062 -23.28125 94.257812 -26.144531 97.625 -29.875 C 100.988281 -33.601562 103.582031 -38.160156 105.40625 -43.546875 C 107.226562 -48.929688 108.140625 -55.019531 108.140625 -61.8125 Z M 108.140625 -61.8125 "/></g></g></g><g fill="#000000" fill-opacity="1"><g transform="translate(424.288024, 338.698846)"><g><path d="M 123.53125 -61.8125 C 123.53125 -52.75 122.019531 -44.425781 119 -36.84375 C 115.976562 -29.257812 111.726562 -22.734375 106.25 -17.265625 C 100.78125 -11.796875 94.195312 -7.550781 86.5 -4.53125 C 78.8125 -1.507812 70.265625 0 60.859375 0 L 13.765625 0 L 13.765625 -123.609375 L 60.859375 -123.609375 C 70.265625 -123.609375 78.8125 -122.082031 86.5 -119.03125 C 94.195312 -115.988281 100.78125 -111.742188 106.25 -106.296875 C 111.726562 -100.859375 115.976562 -94.347656 119 -86.765625 C 122.019531 -79.179688 123.53125 -70.863281 123.53125 -61.8125 Z M 99.9375 -61.8125 C 99.9375 -68.59375 99.035156 -74.675781 97.234375 -80.0625 C 95.441406 -85.445312 92.847656 -90.003906 89.453125 -93.734375 C 86.066406 -97.460938 81.960938 -100.320312 77.140625 -102.3125 C 72.328125 -104.3125 66.898438 -105.3125 60.859375 -105.3125 L 36.84375 -105.3125 L 36.84375 -18.296875 L 60.859375 -18.296875 C 66.898438 -18.296875 72.328125 -19.289062 77.140625 -21.28125 C 81.960938 -23.28125 86.066406 -26.144531 89.453125 -29.875 C 92.847656 -33.601562 95.441406 -38.160156 97.234375 -43.546875 C 99.035156 -48.929688 99.9375 -55.019531 99.9375 -61.8125 Z M 99.9375 -61.8125 "/></g></g></g><g fill="#000000" fill-opacity="1"><g transform="translate(572.943109, 338.698846)"><g><path d="M 86.171875 -18.984375 L 86.171875 0 L 13.765625 0 L 13.765625 -123.609375 L 36.765625 -123.609375 L 36.765625 -18.984375 Z M 86.171875 -18.984375 "/></g></g></g><g fill="#000000" fill-opacity="1"><g transform="translate(675.276359, 338.698846)"><g/></g></g></svg>