<svg xmlns="http://www.w3.org/2000/svg" xmlns:xlink="http://www.w3.org/1999/xlink" width="1024" zoomAndPan="magnify" viewBox="0 0 768 767.999994" height="1024" preserveAspectRatio="xMidYMid meet" version="1.0"><defs><g/><clipPath id="558a0d29aa"><path d="M 21.449219 10.222656 L 752.207031 10.222656 L 752.207031 740.980469 L 21.449219 740.980469 Z M 21.449219 10.222656 " clip-rule="nonzero"/></clipPath><clipPath id="fa155f4e8f"><path d="M 386.828125 10.222656 C 185.035156 10.222656 21.449219 173.808594 21.449219 375.601562 C 21.449219 577.394531 185.035156 740.980469 386.828125 740.980469 C 588.621094 740.980469 752.207031 577.394531 752.207031 375.601562 C 752.207031 173.808594 588.621094 10.222656 386.828125 10.222656 Z M 386.828125 10.222656 " clip-rule="nonzero"/></clipPath><clipPath id="6011fdc866"><path d="M 0.449219 0.222656 L 731.207031 0.222656 L 731.207031 730.980469 L 0.449219 730.980469 Z M 0.449219 0.222656 " clip-rule="nonzero"/></clipPath><clipPath id="9f5bb75457"><path d="M 365.828125 0.222656 C 164.035156 0.222656 0.449219 163.808594 0.449219 365.601562 C 0.449219 567.394531 164.035156 730.980469 365.828125 730.980469 C 567.621094 730.980469 731.207031 567.394531 731.207031 365.601562 C 731.207031 163.808594 567.621094 0.222656 365.828125 0.222656 Z M 365.828125 0.222656 " clip-rule="nonzero"/></clipPath><clipPath id="f3d582bd52"><rect x="0" width="732" y="0" height="731"/></clipPath><clipPath id="1c95b719bd"><path d="M 67.6875 50.199219 L 706 50.199219 L 706 375.601562 L 67.6875 375.601562 Z M 67.6875 50.199219 " clip-rule="nonzero"/></clipPath><clipPath id="2ae6f8f7c4"><path d="M 705.972656 375.601562 C 705.972656 198.359375 560.664062 50.199219 386.828125 50.199219 C 212.996094 50.199219 67.6875 198.359375 67.6875 375.601562 Z M 705.972656 375.601562 " clip-rule="nonzero"/></clipPath><clipPath id="5da8a11727"><path d="M 0.6875 0.199219 L 639 0.199219 L 639 325.601562 L 0.6875 325.601562 Z M 0.6875 0.199219 " clip-rule="nonzero"/></clipPath><clipPath id="87d55c5374"><path d="M 638.972656 325.601562 C 638.972656 148.359375 493.664062 0.199219 319.828125 0.199219 C 145.996094 0.199219 0.6875 148.359375 0.6875 325.601562 Z M 638.972656 325.601562 " clip-rule="nonzero"/></clipPath><clipPath id="1b496237e7"><rect x="0" width="639" y="0" height="326"/></clipPath><clipPath id="7b8526e05d"><path d="M 422.121094 407.285156 L 705.964844 407.285156 L 705.964844 692 L 422.121094 692 Z M 422.121094 407.285156 " clip-rule="nonzero"/></clipPath><clipPath id="65986c0d22"><path d="M 705.964844 407.285156 C 705.964844 482.039062 675.6875 555.136719 622.828125 607.996094 C 569.96875 660.855469 496.875 691.132812 422.121094 691.132812 L 422.121094 407.285156 Z M 705.964844 407.285156 " clip-rule="nonzero"/></clipPath><clipPath id="b37f75307b"><path d="M 0.121094 0.285156 L 283.964844 0.285156 L 283.964844 284.199219 L 0.121094 284.199219 Z M 0.121094 0.285156 " clip-rule="nonzero"/></clipPath><clipPath id="4c0657b293"><path d="M 283.964844 0.285156 C 283.964844 75.039062 253.6875 148.136719 200.828125 200.996094 C 147.96875 253.855469 74.875 284.132812 0.121094 284.132812 L 0.121094 0.285156 Z M 283.964844 0.285156 " clip-rule="nonzero"/></clipPath><clipPath id="436b63cbc6"><rect x="0" width="284" y="0" height="285"/></clipPath><clipPath id="cbbcaf2c8e"><path d="M 168 396 L 517 396 L 517 702 L 168 702 Z M 168 396 " clip-rule="nonzero"/></clipPath><clipPath id="80386381ce"><path d="M 81.886719 536.335938 L 255.566406 287.261719 L 573.71875 509.109375 L 400.039062 758.183594 Z M 81.886719 536.335938 " clip-rule="nonzero"/></clipPath><clipPath id="a45a338f6d"><path d="M 457.925781 428.367188 C 523.699219 474.230469 534.253906 564.457031 486.292969 633.238281 C 438.335938 702.019531 350.019531 723.304688 284.25 677.441406 C 199.425781 618.292969 168.726562 411.800781 168.726562 411.800781 C 168.726562 411.800781 373.101562 369.21875 457.925781 428.367188 Z M 457.925781 428.367188 " clip-rule="nonzero"/></clipPath><clipPath id="a4e57a078e"><path d="M 0.71875 0 L 349 0 L 349 306 L 0.71875 306 Z M 0.71875 0 " clip-rule="nonzero"/></clipPath><clipPath id="62825682f6"><path d="M -86.113281 140.335938 L 87.566406 -108.738281 L 405.71875 113.109375 L 232.039062 362.183594 Z M -86.113281 140.335938 " clip-rule="nonzero"/></clipPath><clipPath id="2f9bd94dc6"><path d="M 289.925781 32.367188 C 355.699219 78.230469 366.253906 168.457031 318.292969 237.238281 C 270.335938 306.019531 182.019531 327.304688 116.25 281.441406 C 31.425781 222.292969 0.726562 15.800781 0.726562 15.800781 C 0.726562 15.800781 205.101562 -26.78125 289.925781 32.367188 Z M 289.925781 32.367188 " clip-rule="nonzero"/></clipPath><clipPath id="c1ddbc3da4"><rect x="0" width="349" y="0" height="306"/></clipPath><clipPath id="50f4dcc006"><path d="M 68 407 L 472 407 L 472 675 L 68 675 Z M 68 407 " clip-rule="nonzero"/></clipPath><clipPath id="3293644d04"><path d="M 15.792969 533.964844 L 121.152344 306.6875 L 511.78125 487.777344 L 406.421875 715.054688 Z M 15.792969 533.964844 " clip-rule="nonzero"/></clipPath><clipPath id="0aa99b6931"><path d="M 68.472656 420.328125 C 165.265625 404.929688 317.042969 397.5 401 436.421875 C 462.144531 464.765625 488.175781 538.703125 459.101562 601.414062 C 430.027344 664.128906 356.785156 692.042969 295.640625 663.695312 C 211.683594 624.777344 199.820312 457.117188 68.472656 420.328125 Z M 68.472656 420.328125 " clip-rule="nonzero"/></clipPath><clipPath id="a562db06b2"><path d="M 0.398438 0 L 404 0 L 404 268 L 0.398438 268 Z M 0.398438 0 " clip-rule="nonzero"/></clipPath><clipPath id="dbdda30b4f"><path d="M -52.207031 126.964844 L 53.152344 -100.3125 L 443.78125 80.777344 L 338.421875 308.054688 Z M -52.207031 126.964844 " clip-rule="nonzero"/></clipPath><clipPath id="7cefa21c20"><path d="M 0.472656 13.328125 C 97.265625 -2.070312 249.042969 -9.5 333 29.421875 C 394.144531 57.765625 420.175781 131.703125 391.101562 194.414062 C 362.027344 257.128906 288.785156 285.042969 227.640625 256.695312 C 143.683594 217.777344 131.820312 50.117188 0.472656 13.328125 Z M 0.472656 13.328125 " clip-rule="nonzero"/></clipPath><clipPath id="cef010d874"><rect x="0" width="404" y="0" height="268"/></clipPath></defs><g clip-path="url(#558a0d29aa)"><g clip-path="url(#fa155f4e8f)"><g transform="matrix(1, 0, 0, 1, 21, 10)"><g clip-path="url(#f3d582bd52)"><g clip-path="url(#6011fdc866)"><g clip-path="url(#9f5bb75457)"><path fill="#000000" d="M 0.449219 0.222656 L 731.207031 0.222656 L 731.207031 730.980469 L 0.449219 730.980469 Z M 0.449219 0.222656 " fill-opacity="1" fill-rule="nonzero"/></g></g></g></g></g></g><g clip-path="url(#1c95b719bd)"><g clip-path="url(#2ae6f8f7c4)"><g transform="matrix(1, 0, 0, 1, 67, 50)"><g clip-path="url(#1b496237e7)"><g clip-path="url(#5da8a11727)"><g clip-path="url(#87d55c5374)"><path fill="#e37648" d="M 0.6875 0.199219 L 638.777344 0.199219 L 638.777344 325.601562 L 0.6875 325.601562 Z M 0.6875 0.199219 " fill-opacity="1" fill-rule="nonzero"/></g></g></g></g></g></g><g clip-path="url(#7b8526e05d)"><g clip-path="url(#65986c0d22)"><g transform="matrix(1, 0, 0, 1, 422, 407)"><g clip-path="url(#436b63cbc6)"><g clip-path="url(#b37f75307b)"><g clip-path="url(#4c0657b293)"><path fill="#e7c94e" d="M 283.964844 284.132812 L 0.121094 284.132812 L 0.121094 0.285156 L 283.964844 0.285156 Z M 283.964844 284.132812 " fill-opacity="1" fill-rule="nonzero"/></g></g></g></g></g></g><g clip-path="url(#cbbcaf2c8e)"><g clip-path="url(#80386381ce)"><g clip-path="url(#a45a338f6d)"><g transform="matrix(1, 0, 0, 1, 168, 396)"><g clip-path="url(#c1ddbc3da4)"><g clip-path="url(#a4e57a078e)"><g clip-path="url(#62825682f6)"><g clip-path="url(#2f9bd94dc6)"><path fill="#000000" d="M -86.113281 140.335938 L 87.566406 -108.738281 L 404.746094 112.429688 L 231.066406 361.503906 Z M -86.113281 140.335938 " fill-opacity="1" fill-rule="nonzero"/></g></g></g></g></g></g></g></g><g clip-path="url(#50f4dcc006)"><g clip-path="url(#3293644d04)"><g clip-path="url(#0aa99b6931)"><g transform="matrix(1, 0, 0, 1, 68, 407)"><g clip-path="url(#cef010d874)"><g clip-path="url(#a562db06b2)"><g clip-path="url(#dbdda30b4f)"><g clip-path="url(#7cefa21c20)"><path fill="#768cec" d="M -52.207031 126.964844 L 53.152344 -100.3125 L 443.78125 80.777344 L 338.421875 308.054688 Z M -52.207031 126.964844 " fill-opacity="1" fill-rule="nonzero"/></g></g></g></g></g></g></g></g><g fill="#000000" fill-opacity="1"><g transform="translate(197.323173, 339.349706)"><g><path d="M -49.328125 -99.703125 L 26.28125 -72.15625 L 19.578125 -53.75 L -11.546875 -65.09375 L -21.984375 -36.4375 L 9.140625 -25.09375 L 2.4375 -6.6875 L -73.171875 -34.234375 L -66.46875 -52.640625 L -36.84375 -41.84375 L -26.40625 -70.5 L -56.03125 -81.296875 Z M -49.328125 -99.703125 "/></g></g></g><g fill="#000000" fill-opacity="1"><g transform="translate(226.071856, 259.201308)"><g><path d="M 33.25 -30.5625 C 27.769531 -25.34375 21.535156 -21.832031 14.546875 -20.03125 C 7.566406 -18.238281 0.5625 -18.34375 -6.46875 -20.34375 C -13.507812 -22.351562 -19.742188 -26.210938 -25.171875 -31.921875 C -30.585938 -37.617188 -34.113281 -44.015625 -35.75 -51.109375 C -37.382812 -58.203125 -37.128906 -65.191406 -34.984375 -72.078125 C -32.847656 -78.972656 -29.039062 -85.03125 -23.5625 -90.25 C -18.070312 -95.46875 -11.832031 -98.972656 -4.84375 -100.765625 C 2.132812 -102.566406 9.097656 -102.453125 16.046875 -100.421875 C 23.003906 -98.390625 29.191406 -94.523438 34.609375 -88.828125 C 40.035156 -83.117188 43.59375 -76.71875 45.28125 -69.625 C 46.976562 -62.53125 46.769531 -55.550781 44.65625 -48.6875 C 42.539062 -41.820312 38.738281 -35.78125 33.25 -30.5625 Z M 20.921875 -43.515625 C 25.578125 -47.941406 27.828125 -53.035156 27.671875 -58.796875 C 27.523438 -64.554688 25.023438 -69.984375 20.171875 -75.078125 C 15.273438 -80.222656 9.96875 -83 4.25 -83.40625 C -1.46875 -83.8125 -6.65625 -81.800781 -11.3125 -77.375 C -16.007812 -72.894531 -18.304688 -67.800781 -18.203125 -62.09375 C -18.109375 -56.394531 -15.585938 -50.945312 -10.640625 -45.75 C -5.734375 -40.59375 -0.421875 -37.8125 5.296875 -37.40625 C 11.015625 -37 16.222656 -39.035156 20.921875 -43.515625 Z M 20.921875 -43.515625 "/></g></g></g><g fill="#000000" fill-opacity="1"><g transform="translate(292.798285, 197.111748)"><g><path d="M 11.71875 -87.890625 C 19.8125 -90.398438 27.382812 -90.988281 34.4375 -89.65625 C 41.488281 -88.332031 47.578125 -85.285156 52.703125 -80.515625 C 57.828125 -75.753906 61.566406 -69.578125 63.921875 -61.984375 C 66.265625 -54.460938 66.675781 -47.269531 65.15625 -40.40625 C 63.644531 -33.539062 60.34375 -27.550781 55.25 -22.4375 C 50.15625 -17.332031 43.597656 -13.535156 35.578125 -11.046875 L 6.796875 -2.109375 L -17.0625 -78.953125 Z M 29.34375 -26.875 C 36.414062 -29.070312 41.320312 -32.710938 44.0625 -37.796875 C 46.800781 -42.890625 47.070312 -48.976562 44.875 -56.0625 C 42.675781 -63.144531 38.992188 -68.039062 33.828125 -70.75 C 28.660156 -73.46875 22.539062 -73.726562 15.46875 -71.53125 L 6.59375 -68.78125 L 20.46875 -24.125 Z M 29.34375 -26.875 "/></g></g></g><g fill="#000000" fill-opacity="1"><g transform="translate(376.26511, 174.701324)"><g><path d="M 27.828125 -12.921875 L 53.4375 -10.859375 L 52.21875 4.21875 L 7.09375 0.578125 L 13.578125 -79.625 L 33.09375 -78.046875 Z M 27.828125 -12.921875 "/></g></g></g><g fill="#000000" fill-opacity="1"><g transform="translate(434.951421, 177.399216)"><g><path d="M 104.671875 -37.65625 L 68.703125 34.328125 L 51.171875 25.5625 L 65.984375 -4.0625 L 38.703125 -17.6875 L 23.890625 11.9375 L 6.359375 3.171875 L 42.328125 -68.8125 L 59.859375 -60.046875 L 45.765625 -31.84375 L 73.046875 -18.21875 L 87.140625 -46.421875 Z M 104.671875 -37.65625 "/></g></g></g><g fill="#000000" fill-opacity="1"><g transform="translate(511.106039, 216.248995)"><g><path d="M 79.53125 -29.09375 L 41.703125 0.703125 C 37.921875 3.679688 35.738281 6.90625 35.15625 10.375 C 34.582031 13.84375 35.71875 17.375 38.5625 20.96875 C 41.394531 24.570312 44.585938 26.53125 48.140625 26.84375 C 51.703125 27.164062 55.375 25.835938 59.15625 22.859375 L 96.984375 -6.9375 L 109.109375 8.453125 L 71.375 38.171875 C 65.738281 42.617188 60.019531 45.179688 54.21875 45.859375 C 48.425781 46.535156 42.941406 45.628906 37.765625 43.140625 C 32.597656 40.648438 28.050781 36.910156 24.125 31.921875 C 20.195312 26.941406 17.660156 21.71875 16.515625 16.25 C 15.367188 10.78125 15.863281 5.359375 18 -0.015625 C 20.144531 -5.398438 24.035156 -10.316406 29.671875 -14.765625 L 67.40625 -44.484375 Z M 79.53125 -29.09375 "/></g></g></g><g fill="#000000" fill-opacity="1"><g transform="translate(561.222418, 282.893254)"><g><path d="M 94.5625 41.921875 L 79.390625 46 L 73.859375 25.390625 L 11.3125 42.171875 L 6.234375 23.25 L 68.78125 6.46875 L 63.265625 -14.125 L 78.4375 -18.203125 Z M 94.5625 41.921875 "/></g></g></g></svg>