<svg xmlns="http://www.w3.org/2000/svg" xmlns:xlink="http://www.w3.org/1999/xlink" width="1000" zoomAndPan="magnify" viewBox="0 0 750 749.999995" height="1000" preserveAspectRatio="xMidYMid meet" version="1.0"><defs><clipPath id="975f1d1521"><path d="M 750 375 C 750 381.136719 749.847656 387.269531 749.546875 393.402344 C 749.246094 399.53125 748.796875 405.648438 748.195312 411.757812 C 747.59375 417.863281 746.839844 423.953125 745.941406 430.023438 C 745.039062 436.09375 743.992188 442.140625 742.792969 448.160156 C 741.597656 454.179688 740.253906 460.164062 738.761719 466.117188 C 737.269531 472.070312 735.632812 477.984375 733.851562 483.855469 C 732.070312 489.730469 730.144531 495.554688 728.078125 501.332031 C 726.011719 507.113281 723.804688 512.835938 721.453125 518.507812 C 719.105469 524.175781 716.621094 529.785156 713.996094 535.332031 C 711.371094 540.882812 708.613281 546.359375 705.71875 551.773438 C 702.828125 557.1875 699.804688 562.523438 696.648438 567.789062 C 693.492188 573.050781 690.210938 578.234375 686.800781 583.339844 C 683.390625 588.441406 679.859375 593.457031 676.203125 598.386719 C 672.546875 603.316406 668.773438 608.152344 664.878906 612.898438 C 660.984375 617.640625 656.976562 622.289062 652.855469 626.835938 C 648.734375 631.382812 644.503906 635.824219 640.164062 640.164062 C 635.824219 644.503906 631.382812 648.734375 626.835938 652.855469 C 622.289062 656.976562 617.640625 660.984375 612.898438 664.878906 C 608.152344 668.773438 603.316406 672.546875 598.386719 676.203125 C 593.457031 679.859375 588.441406 683.390625 583.339844 686.800781 C 578.234375 690.210938 573.050781 693.492188 567.789062 696.648438 C 562.523438 699.804688 557.1875 702.828125 551.773438 705.71875 C 546.359375 708.613281 540.882812 711.371094 535.332031 713.996094 C 529.785156 716.621094 524.175781 719.105469 518.507812 721.453125 C 512.835938 723.804688 507.113281 726.011719 501.332031 728.078125 C 495.554688 730.148438 489.730469 732.070312 483.855469 733.851562 C 477.984375 735.632812 472.070312 737.269531 466.117188 738.761719 C 460.164062 740.253906 454.179688 741.597656 448.160156 742.792969 C 442.140625 743.992188 436.09375 745.039062 430.023438 745.941406 C 423.953125 746.839844 417.863281 747.59375 411.757812 748.195312 C 405.648438 748.796875 399.53125 749.246094 393.398438 749.546875 C 387.269531 749.847656 381.136719 750 375 750 C 368.863281 750 362.730469 749.847656 356.597656 749.546875 C 350.46875 749.246094 344.351562 748.796875 338.242188 748.195312 C 332.136719 747.59375 326.046875 746.839844 319.976562 745.941406 C 313.90625 745.039062 307.859375 743.992188 301.839844 742.792969 C 295.820312 741.597656 289.835938 740.253906 283.882812 738.761719 C 277.929688 737.269531 272.015625 735.632812 266.144531 733.851562 C 260.269531 732.070312 254.445312 730.144531 248.667969 728.078125 C 242.886719 726.011719 237.164062 723.804688 231.492188 721.453125 C 225.824219 719.105469 220.214844 716.621094 214.667969 713.996094 C 209.117188 711.371094 203.640625 708.613281 198.226562 705.71875 C 192.8125 702.828125 187.476562 699.804688 182.210938 696.648438 C 176.949219 693.492188 171.765625 690.210938 166.660156 686.800781 C 161.558594 683.390625 156.542969 679.859375 151.613281 676.203125 C 146.683594 672.546875 141.847656 668.773438 137.101562 664.878906 C 132.359375 660.984375 127.710938 656.976562 123.164062 652.855469 C 118.617188 648.734375 114.175781 644.503906 109.835938 640.164062 C 105.496094 635.824219 101.265625 631.382812 97.144531 626.835938 C 93.023438 622.289062 89.015625 617.640625 85.121094 612.898438 C 81.226562 608.152344 77.453125 603.316406 73.796875 598.386719 C 70.140625 593.457031 66.609375 588.441406 63.199219 583.339844 C 59.789062 578.234375 56.507812 573.050781 53.351562 567.789062 C 50.195312 562.523438 47.171875 557.1875 44.28125 551.773438 C 41.386719 546.359375 38.628906 540.882812 36.003906 535.332031 C 33.378906 529.785156 30.894531 524.175781 28.546875 518.507812 C 26.195312 512.835938 23.988281 507.113281 21.921875 501.332031 C 19.851562 495.554688 17.929688 489.730469 16.148438 483.855469 C 14.367188 477.984375 12.730469 472.070312 11.238281 466.117188 C 9.746094 460.164062 8.402344 454.179688 7.207031 448.160156 C 6.007812 442.140625 4.960938 436.09375 4.058594 430.023438 C 3.160156 423.953125 2.40625 417.863281 1.804688 411.757812 C 1.203125 405.648438 0.753906 399.53125 0.453125 393.402344 C 0.152344 387.269531 0 381.136719 0 375 C 0 368.863281 0.152344 362.730469 0.453125 356.597656 C 0.753906 350.46875 1.203125 344.351562 1.804688 338.242188 C 2.40625 332.136719 3.160156 326.046875 4.058594 319.976562 C 4.960938 313.90625 6.007812 307.859375 7.207031 301.839844 C 8.402344 295.820312 9.746094 289.835938 11.238281 283.882812 C 12.730469 277.929688 14.367188 272.015625 16.148438 266.144531 C 17.929688 260.269531 19.851562 254.445312 21.921875 248.667969 C 23.988281 242.886719 26.195312 237.164062 28.546875 231.492188 C 30.894531 225.824219 33.378906 220.214844 36.003906 214.667969 C 38.628906 209.117188 41.386719 203.640625 44.28125 198.226562 C 47.171875 192.8125 50.195312 187.476562 53.351562 182.210938 C 56.507812 176.949219 59.789062 171.765625 63.199219 166.660156 C 66.609375 161.558594 70.140625 156.542969 73.796875 151.613281 C 77.453125 146.683594 81.226562 141.847656 85.121094 137.101562 C 89.015625 132.359375 93.023438 127.710938 97.144531 123.164062 C 101.265625 118.617188 105.496094 114.175781 109.835938 109.835938 C 114.175781 105.496094 118.617188 101.265625 123.164062 97.144531 C 127.710938 93.023438 132.359375 89.015625 137.101562 85.121094 C 141.847656 81.226562 146.683594 77.453125 151.613281 73.796875 C 156.542969 70.140625 161.558594 66.609375 166.660156 63.199219 C 171.765625 59.789062 176.949219 56.507812 182.210938 53.351562 C 187.476562 50.195312 192.8125 47.171875 198.226562 44.28125 C 203.640625 41.386719 209.117188 38.628906 214.667969 36.003906 C 220.214844 33.378906 225.824219 30.894531 231.492188 28.546875 C 237.164062 26.195312 242.886719 23.988281 248.667969 21.921875 C 254.445312 19.851562 260.269531 17.929688 266.144531 16.148438 C 272.015625 14.367188 277.929688 12.730469 283.882812 11.238281 C 289.835938 9.746094 295.820312 8.402344 301.839844 7.207031 C 307.859375 6.007812 313.90625 4.960938 319.976562 4.058594 C 326.046875 3.160156 332.136719 2.40625 338.242188 1.804688 C 344.351562 1.203125 350.46875 0.753906 356.597656 0.453125 C 362.730469 0.152344 368.863281 0 375 0 C 381.136719 0 387.269531 0.152344 393.398438 0.453125 C 399.53125 0.753906 405.648438 1.203125 411.757812 1.804688 C 417.863281 2.40625 423.953125 3.160156 430.023438 4.058594 C 436.09375 4.960938 442.140625 6.007812 448.160156 7.207031 C 454.179688 8.402344 460.164062 9.746094 466.117188 11.238281 C 472.070312 12.730469 477.984375 14.367188 483.855469 16.148438 C 489.730469 17.929688 495.554688 19.851562 501.332031 21.921875 C 507.113281 23.988281 512.835938 26.195312 518.507812 28.546875 C 524.175781 30.894531 529.785156 33.378906 535.332031 36.003906 C 540.882812 38.628906 546.359375 41.386719 551.773438 44.28125 C 557.1875 47.171875 562.523438 50.195312 567.789062 53.351562 C 573.050781 56.507812 578.234375 59.789062 583.339844 63.199219 C 588.441406 66.609375 593.457031 70.140625 598.386719 73.796875 C 603.316406 77.453125 608.152344 81.226562 612.898438 85.121094 C 617.640625 89.015625 622.289062 93.023438 626.835938 97.144531 C 631.382812 101.265625 635.824219 105.496094 640.164062 109.835938 C 644.503906 114.175781 648.734375 118.617188 652.855469 123.164062 C 656.976562 127.710938 660.984375 132.359375 664.878906 137.101562 C 668.773438 141.847656 672.546875 146.683594 676.203125 151.613281 C 679.859375 156.542969 683.390625 161.558594 686.800781 166.660156 C 690.210938 171.765625 693.492188 176.949219 696.648438 182.210938 C 699.804688 187.476562 702.828125 192.8125 705.71875 198.226562 C 708.613281 203.640625 711.371094 209.117188 713.996094 214.667969 C 716.621094 220.214844 719.105469 225.824219 721.453125 231.492188 C 723.804688 237.164062 726.011719 242.886719 728.078125 248.667969 C 730.144531 254.445312 732.070312 260.269531 733.851562 266.144531 C 735.632812 272.015625 737.269531 277.929688 738.761719 283.882812 C 740.253906 289.835938 741.597656 295.820312 742.792969 301.839844 C 743.992188 307.859375 745.039062 313.90625 745.941406 319.976562 C 746.839844 326.046875 747.59375 332.136719 748.195312 338.242188 C 748.796875 344.351562 749.246094 350.46875 749.546875 356.597656 C 749.847656 362.730469 750 368.863281 750 375 Z M 750 375 " clip-rule="nonzero"/></clipPath><linearGradient x1="-0.163836" gradientTransform="matrix(23.4375, 0, 0, 23.4375, 0.00000265, 0.00002)" y1="15.134027" x2="32.143962" gradientUnits="userSpaceOnUse" y2="14.820189" id="84fae1a0c4"><stop stop-opacity="1" stop-color="rgb(33.392334%, 41.191101%, 85.926819%)" offset="0"/><stop stop-opacity="1" stop-color="rgb(33.552551%, 41.221619%, 86.047363%)" offset="0.00962056"/><stop stop-opacity="1" stop-color="rgb(33.714294%, 41.252136%, 86.167908%)" offset="0.015625"/><stop stop-opacity="1" stop-color="rgb(33.874512%, 41.281128%, 86.288452%)" offset="0.03125"/><stop stop-opacity="1" stop-color="rgb(34.196472%, 41.342163%, 86.529541%)" offset="0.046875"/><stop stop-opacity="1" stop-color="rgb(34.518433%, 41.401672%, 86.772156%)" offset="0.0625"/><stop stop-opacity="1" stop-color="rgb(34.840393%, 41.462708%, 87.013245%)" offset="0.078125"/><stop stop-opacity="1" stop-color="rgb(35.162354%, 41.522217%, 87.254333%)" offset="0.09375"/><stop stop-opacity="1" stop-color="rgb(35.484314%, 41.583252%, 87.495422%)" offset="0.109375"/><stop stop-opacity="1" stop-color="rgb(35.804749%, 41.642761%, 87.736511%)" offset="0.125"/><stop stop-opacity="1" stop-color="rgb(36.126709%, 41.703796%, 87.9776%)" offset="0.140625"/><stop stop-opacity="1" stop-color="rgb(36.448669%, 41.763306%, 88.218689%)" offset="0.15625"/><stop stop-opacity="1" stop-color="rgb(36.77063%, 41.824341%, 88.459778%)" offset="0.171875"/><stop stop-opacity="1" stop-color="rgb(37.09259%, 41.88385%, 88.700867%)" offset="0.1875"/><stop stop-opacity="1" stop-color="rgb(37.414551%, 41.944885%, 88.943481%)" offset="0.203125"/><stop stop-opacity="1" stop-color="rgb(37.736511%, 42.004395%, 89.18457%)" offset="0.21875"/><stop stop-opacity="1" stop-color="rgb(38.056946%, 42.06543%, 89.425659%)" offset="0.234375"/><stop stop-opacity="1" stop-color="rgb(38.378906%, 42.126465%, 89.666748%)" offset="0.25"/><stop stop-opacity="1" stop-color="rgb(38.700867%, 42.185974%, 89.907837%)" offset="0.265625"/><stop stop-opacity="1" stop-color="rgb(39.022827%, 42.247009%, 90.148926%)" offset="0.28125"/><stop stop-opacity="1" stop-color="rgb(39.344788%, 42.306519%, 90.390015%)" offset="0.296875"/><stop stop-opacity="1" stop-color="rgb(39.666748%, 42.367554%, 90.631104%)" offset="0.3125"/><stop stop-opacity="1" stop-color="rgb(39.987183%, 42.427063%, 90.872192%)" offset="0.328125"/><stop stop-opacity="1" stop-color="rgb(40.309143%, 42.488098%, 91.113281%)" offset="0.34375"/><stop stop-opacity="1" stop-color="rgb(40.631104%, 42.547607%, 91.355896%)" offset="0.359375"/><stop stop-opacity="1" stop-color="rgb(40.953064%, 42.608643%, 91.596985%)" offset="0.375"/><stop stop-opacity="1" stop-color="rgb(41.275024%, 42.668152%, 91.838074%)" offset="0.390625"/><stop stop-opacity="1" stop-color="rgb(41.596985%, 42.729187%, 92.079163%)" offset="0.40625"/><stop stop-opacity="1" stop-color="rgb(41.918945%, 42.788696%, 92.320251%)" offset="0.421875"/><stop stop-opacity="1" stop-color="rgb(42.23938%, 42.849731%, 92.56134%)" offset="0.4375"/><stop stop-opacity="1" stop-color="rgb(42.56134%, 42.909241%, 92.802429%)" offset="0.453125"/><stop stop-opacity="1" stop-color="rgb(42.883301%, 42.970276%, 93.043518%)" offset="0.46875"/><stop stop-opacity="1" stop-color="rgb(43.205261%, 43.029785%, 93.284607%)" offset="0.484375"/><stop stop-opacity="1" stop-color="rgb(43.527222%, 43.09082%, 93.527222%)" offset="0.5"/><stop stop-opacity="1" stop-color="rgb(43.849182%, 43.15033%, 93.768311%)" offset="0.515625"/><stop stop-opacity="1" stop-color="rgb(44.171143%, 43.211365%, 94.009399%)" offset="0.53125"/><stop stop-opacity="1" stop-color="rgb(44.491577%, 43.2724%, 94.250488%)" offset="0.546875"/><stop stop-opacity="1" stop-color="rgb(44.813538%, 43.331909%, 94.491577%)" offset="0.5625"/><stop stop-opacity="1" stop-color="rgb(45.135498%, 43.392944%, 94.732666%)" offset="0.578125"/><stop stop-opacity="1" stop-color="rgb(45.457458%, 43.452454%, 94.973755%)" offset="0.59375"/><stop stop-opacity="1" stop-color="rgb(45.779419%, 43.513489%, 95.214844%)" offset="0.609375"/><stop stop-opacity="1" stop-color="rgb(46.101379%, 43.572998%, 95.455933%)" offset="0.625"/><stop stop-opacity="1" stop-color="rgb(46.421814%, 43.634033%, 95.698547%)" offset="0.640625"/><stop stop-opacity="1" stop-color="rgb(46.743774%, 43.693542%, 95.939636%)" offset="0.65625"/><stop stop-opacity="1" stop-color="rgb(47.065735%, 43.754578%, 96.180725%)" offset="0.671875"/><stop stop-opacity="1" stop-color="rgb(47.387695%, 43.814087%, 96.421814%)" offset="0.6875"/><stop stop-opacity="1" stop-color="rgb(47.709656%, 43.875122%, 96.662903%)" offset="0.703125"/><stop stop-opacity="1" stop-color="rgb(48.031616%, 43.934631%, 96.903992%)" offset="0.71875"/><stop stop-opacity="1" stop-color="rgb(48.353577%, 43.995667%, 97.145081%)" offset="0.734375"/><stop stop-opacity="1" stop-color="rgb(48.674011%, 44.055176%, 97.386169%)" offset="0.75"/><stop stop-opacity="1" stop-color="rgb(48.995972%, 44.116211%, 97.627258%)" offset="0.765625"/><stop stop-opacity="1" stop-color="rgb(49.317932%, 44.17572%, 97.869873%)" offset="0.78125"/><stop stop-opacity="1" stop-color="rgb(49.639893%, 44.236755%, 98.110962%)" offset="0.796875"/><stop stop-opacity="1" stop-color="rgb(49.961853%, 44.296265%, 98.352051%)" offset="0.8125"/><stop stop-opacity="1" stop-color="rgb(50.283813%, 44.3573%, 98.59314%)" offset="0.828125"/><stop stop-opacity="1" stop-color="rgb(50.605774%, 44.418335%, 98.834229%)" offset="0.84375"/><stop stop-opacity="1" stop-color="rgb(50.926208%, 44.477844%, 99.075317%)" offset="0.859375"/><stop stop-opacity="1" stop-color="rgb(51.248169%, 44.538879%, 99.316406%)" offset="0.875"/><stop stop-opacity="1" stop-color="rgb(51.570129%, 44.598389%, 99.557495%)" offset="0.890625"/><stop stop-opacity="1" stop-color="rgb(51.89209%, 44.659424%, 99.798584%)" offset="0.90625"/><stop stop-opacity="1" stop-color="rgb(52.105713%, 44.699097%, 99.960327%)" offset="0.9375"/><stop stop-opacity="1" stop-color="rgb(52.159119%, 44.709778%, 100%)" offset="0.990379"/><stop stop-opacity="1" stop-color="rgb(52.159119%, 44.709778%, 100%)" offset="1"/></linearGradient></defs><g clip-path="url(#975f1d1521)"><rect x="-75" fill="url(#84fae1a0c4)" width="900" y="-74.999999" height="899.999994"/></g><path fill="#ffffff" d="M 472.90625 164.976562 C 412.539062 164.976562 368.933594 213.265625 357.304688 247.367188 C 336.902344 299.835938 345.515625 340.140625 353.105469 375.683594 L 353.65625 378.273438 C 360.703125 411.332031 367.351562 442.550781 357.828125 481.738281 C 356.945312 487.105469 355.375 492.378906 353.160156 497.421875 C 342.261719 522.410156 317.546875 538.550781 290.207031 538.550781 C 252.367188 538.550781 221.582031 507.945312 221.582031 470.324219 C 221.582031 432.683594 252.367188 402.0625 290.207031 402.0625 C 300.398438 402.0625 310.191406 404.246094 319.335938 408.542969 L 327.308594 412.292969 L 317.375 351.941406 L 314.242188 351.308594 C 306.378906 349.738281 298.292969 348.945312 290.207031 348.945312 C 222.921875 348.945312 168.183594 403.390625 168.183594 470.324219 C 168.183594 537.257812 222.921875 591.703125 290.207031 591.703125 C 346.066406 591.703125 394.679688 554.136719 408.347656 500.648438 C 422.171875 458.757812 415.710938 420.535156 406.550781 378.46875 L 405.527344 373.789062 C 396.539062 332.648438 389.4375 300.152344 410.851562 257.242188 C 422.117188 233.480469 446.476562 218.121094 472.90625 218.121094 C 510.730469 218.121094 541.507812 248.722656 541.507812 286.347656 C 541.507812 323.96875 510.730469 354.582031 472.90625 354.582031 C 463.53125 354.582031 454.421875 352.730469 445.808594 349.0625 L 438.066406 345.773438 L 447.84375 405.207031 L 451.058594 405.792969 C 458.207031 407.078125 465.558594 407.734375 472.90625 407.734375 C 540.179688 407.734375 594.90625 353.277344 594.90625 286.347656 C 594.90625 219.421875 540.179688 164.976562 472.90625 164.976562 Z M 472.90625 164.976562 " fill-opacity="1" fill-rule="evenodd"/></svg>