<svg xmlns="http://www.w3.org/2000/svg" xmlns:xlink="http://www.w3.org/1999/xlink" width="1000" zoomAndPan="magnify" viewBox="0 0 750 749.999995" height="1000" preserveAspectRatio="xMidYMid meet" version="1.0"><defs><clipPath id="93428b2bec"><path d="M 8.445312 21.171875 L 742 21.171875 L 742 728.828125 L 8.445312 728.828125 Z M 8.445312 21.171875 " clip-rule="nonzero"/></clipPath><clipPath id="c8d8ab29ee"><path d="M 43.695312 21.171875 L 706.304688 21.171875 C 715.652344 21.171875 724.617188 24.886719 731.230469 31.5 C 737.839844 38.109375 741.554688 47.074219 741.554688 56.421875 L 741.554688 693.578125 C 741.554688 702.925781 737.839844 711.890625 731.230469 718.5 C 724.617188 725.113281 715.652344 728.828125 706.304688 728.828125 L 43.695312 728.828125 C 34.347656 728.828125 25.382812 725.113281 18.769531 718.5 C 12.160156 711.890625 8.445312 702.925781 8.445312 693.578125 L 8.445312 56.421875 C 8.445312 47.074219 12.160156 38.109375 18.769531 31.5 C 25.382812 24.886719 34.347656 21.171875 43.695312 21.171875 Z M 43.695312 21.171875 " clip-rule="nonzero"/></clipPath><clipPath id="28c64997a2"><path d="M 0.445312 0.171875 L 733 0.171875 L 733 707.828125 L 0.445312 707.828125 Z M 0.445312 0.171875 " clip-rule="nonzero"/></clipPath><clipPath id="535acb857b"><path d="M 35.695312 0.171875 L 698.304688 0.171875 C 707.652344 0.171875 716.617188 3.886719 723.230469 10.5 C 729.839844 17.109375 733.554688 26.074219 733.554688 35.421875 L 733.554688 672.578125 C 733.554688 681.925781 729.839844 690.890625 723.230469 697.5 C 716.617188 704.113281 707.652344 707.828125 698.304688 707.828125 L 35.695312 707.828125 C 26.347656 707.828125 17.382812 704.113281 10.769531 697.5 C 4.160156 690.890625 0.445312 681.925781 0.445312 672.578125 L 0.445312 35.421875 C 0.445312 26.074219 4.160156 17.109375 10.769531 10.5 C 17.382812 3.886719 26.347656 0.171875 35.695312 0.171875 Z M 35.695312 0.171875 " clip-rule="nonzero"/></clipPath><clipPath id="bb157f6c59"><rect x="0" width="734" y="0" height="708"/></clipPath><clipPath id="e0bf5ef78f"><rect x="0" width="750" y="0" height="750"/></clipPath></defs><g transform="matrix(1, 0, 0, 1, 0, -0.000000000000042435)"><g clip-path="url(#e0bf5ef78f)"><g clip-path="url(#93428b2bec)"><g clip-path="url(#c8d8ab29ee)"><g transform="matrix(1, 0, 0, 1, 8, 21)"><g clip-path="url(#bb157f6c59)"><g clip-path="url(#28c64997a2)"><g clip-path="url(#535acb857b)"><path fill="#ffffff" d="M 0.445312 0.171875 L 732.976562 0.171875 L 732.976562 707.828125 L 0.445312 707.828125 Z M 0.445312 0.171875 " fill-opacity="1" fill-rule="nonzero"/></g></g></g></g></g></g><path fill="#000000" d="M 442.832031 300.613281 L 314.484375 300.613281 C 309.039062 300.613281 304.570312 305.078125 304.570312 310.527344 L 304.570312 438.875 C 304.570312 444.320312 309.035156 448.789062 314.484375 448.789062 L 442.832031 448.789062 C 448.28125 448.789062 452.746094 444.320312 452.746094 438.875 L 452.746094 310.527344 C 452.746094 305.078125 448.28125 300.613281 442.832031 300.613281 Z M 442.832031 300.613281 " fill-opacity="1" fill-rule="nonzero"/><path fill="#000000" d="M 294.6875 152.941406 L 166.339844 152.941406 C 160.894531 152.941406 156.425781 157.410156 156.425781 162.855469 L 156.425781 291.203125 C 156.425781 296.652344 160.894531 301.117188 166.339844 301.117188 L 294.6875 301.117188 C 300.136719 301.117188 304.601562 296.652344 304.601562 291.203125 L 304.601562 162.855469 C 304.570312 157.410156 300.136719 152.941406 294.6875 152.941406 Z M 294.6875 152.941406 " fill-opacity="1" fill-rule="nonzero"/><path fill="#000000" d="M 590.5 152.941406 L 462.15625 152.941406 C 456.707031 152.941406 452.238281 157.410156 452.238281 162.855469 L 452.238281 291.203125 C 452.238281 296.652344 456.707031 301.117188 462.15625 301.117188 L 590.5 301.117188 C 595.949219 301.117188 600.417969 296.652344 600.417969 291.203125 L 600.417969 162.855469 C 600.417969 157.410156 595.949219 152.941406 590.5 152.941406 Z M 590.5 152.941406 " fill-opacity="1" fill-rule="nonzero"/><path fill="#000000" d="M 294.6875 448.28125 L 166.339844 448.28125 C 160.894531 448.28125 156.425781 452.746094 156.425781 458.195312 L 156.425781 586.542969 C 156.425781 591.992188 160.894531 596.457031 166.339844 596.457031 L 294.6875 596.457031 C 300.136719 596.457031 304.601562 591.992188 304.601562 586.542969 L 304.601562 458.195312 C 304.570312 452.746094 300.136719 448.28125 294.6875 448.28125 Z M 294.6875 448.28125 " fill-opacity="1" fill-rule="nonzero"/><path fill="#000000" d="M 590.5 448.28125 L 462.15625 448.28125 C 456.707031 448.28125 452.238281 452.746094 452.238281 458.195312 L 452.238281 586.542969 C 452.238281 591.992188 456.707031 596.457031 462.15625 596.457031 L 590.5 596.457031 C 595.949219 596.457031 600.417969 591.992188 600.417969 586.542969 L 600.417969 458.195312 C 600.417969 452.746094 595.949219 448.28125 590.5 448.28125 Z M 590.5 448.28125 " fill-opacity="1" fill-rule="nonzero"/></g></g></svg>