<?xml version="1.0" encoding="UTF-8"?>
<svg version="1.1" xmlns="http://www.w3.org/2000/svg" width="300" height="200">
<path d="M0 0 C28.6671653 -0.02332528 57.33432918 -0.04097735 86.00150204 -0.05181217 C99.3111454 -0.05697592 112.62078062 -0.06402011 125.93041992 -0.07543945 C137.52650044 -0.08538389 149.1225767 -0.09185285 160.71866137 -0.09408849 C166.86283525 -0.09539601 173.00699693 -0.09848444 179.15116692 -0.10573006 C184.9269741 -0.11248649 190.702764 -0.11461774 196.47857475 -0.11310768 C198.60511875 -0.11338418 200.73166329 -0.11539153 202.85820389 -0.11920547 C205.74805584 -0.12413683 208.63784141 -0.12300036 211.5276947 -0.12025452 C212.38079049 -0.12316736 213.23388627 -0.1260802 214.11283344 -0.12908131 C219.88587879 -0.11412121 219.88587879 -0.11412121 221 1 C221 6.61 221 12.22 221 18 C161.27 18.33 101.54 18.66 40 19 C42.64 21.97 45.28 24.94 48 28 C48 28.66 48 29.32 48 30 C48.57234375 30.22816406 49.1446875 30.45632812 49.734375 30.69140625 C52.60751805 32.35089405 54.19260521 34.34289658 56.25 36.9375 C56.95640625 37.81277344 57.6628125 38.68804687 58.390625 39.58984375 C60 42 60 42 60 45 C56.43793278 45.14567407 52.87663449 45.23419196 49.3125 45.3125 C48.30509766 45.35439453 47.29769531 45.39628906 46.25976562 45.43945312 C38.7511437 45.56335778 38.7511437 45.56335778 35.15625 42.8671875 C34.4446875 41.92101562 33.733125 40.97484375 33 40 C32.04634552 38.97514997 31.0809196 37.96115778 30.10546875 36.95703125 C29.13161081 35.90997056 28.15896265 34.86178342 27.1875 33.8125 C26.43436523 33.01295898 26.43436523 33.01295898 25.66601562 32.19726562 C22 28.23198342 22 28.23198342 22 26 C21.44183594 25.78988281 20.88367188 25.57976562 20.30859375 25.36328125 C17.20644011 23.53138341 15.262987 20.97433422 13.0625 18.1875 C9.90134588 14.23483589 6.62246908 10.54238048 3 7 C0 3.48275862 0 3.48275862 0 0 Z " fill="#CF5A58" transform="translate(52,90)"/>
<path d="M0 0 C9.37974764 -0.11613031 18.75924574 -0.20483442 28.13955688 -0.25906086 C32.49580376 -0.28509421 36.85155681 -0.32037635 41.20751953 -0.37719727 C45.41562719 -0.43174256 49.62326151 -0.46146759 53.83169556 -0.47438622 C55.43282517 -0.48358595 57.03393047 -0.50155102 58.63485718 -0.52865028 C68.22916573 -0.68451584 75.27445585 -0.50679547 82.50048828 6.44316101 C86.37759194 10.65826306 87.91542402 14.71644856 88.125 20.375 C88.08375 21.24125 88.0425 22.1075 88 23 C84.98109074 24.50945463 81.87286494 24.30648821 78.5625 24.375 C77.88123047 24.41238281 77.19996094 24.44976562 76.49804688 24.48828125 C74.50390625 24.5234375 74.50390625 24.5234375 71 24 C70.65984863 23.1742749 70.31969727 22.3485498 69.96923828 21.49780273 C68.29197135 18.81890289 68.29197135 18.81890289 65.84342957 18.55511475 C62.8808589 18.41953539 59.95307681 18.438982 56.98828125 18.51171875 C56.02805054 18.51675415 55.06781982 18.52178955 54.07849121 18.52697754 C50.48952402 18.5531496 46.90098222 18.6229569 43.3125 18.6875 C35.289375 18.790625 27.26625 18.89375 19 19 C18.67 35.83 18.34 52.66 18 70 C12.06 70 6.12 70 0 70 C-1.125 62.125 -1.125 62.125 -1.09765625 58.16015625 C-1.09443359 57.32548828 -1.09121094 56.49082031 -1.08789062 55.63085938 C-1.07951172 54.78330078 -1.07113281 53.93574219 -1.0625 53.0625 C-1.05798828 52.18787109 -1.05347656 51.31324219 -1.04882812 50.41210938 C-1.03714834 48.27470953 -1.01921689 46.13734537 -1 44 C-2.98 43.67 -4.96 43.34 -7 43 C-7.02684312 40.18743719 -7.04676188 37.37512759 -7.0625 34.5625 C-7.07087891 33.76005859 -7.07925781 32.95761719 -7.08789062 32.13085938 C-7.0965143 30.08704779 -7.0522815 28.04316098 -7 26 C-6 25 -6 25 -3.4375 24.9375 C-2.2309375 24.9684375 -2.2309375 24.9684375 -1 25 C-1.00523682 24.31373535 -1.01047363 23.6274707 -1.01586914 22.92041016 C-1.03660956 19.82194936 -1.04965076 16.72350314 -1.0625 13.625 C-1.07087891 12.54476562 -1.07925781 11.46453125 -1.08789062 10.3515625 C-1.09111328 9.3203125 -1.09433594 8.2890625 -1.09765625 7.2265625 C-1.10289307 6.27346191 -1.10812988 5.32036133 -1.11352539 4.33837891 C-1 2 -1 2 0 0 Z " fill="#CB3F7B" transform="translate(31,65)"/>
<path d="M0 0 C0.74886475 0.00523682 1.49772949 0.01047363 2.26928711 0.01586914 C3.07817383 0.0190918 3.88706055 0.02231445 4.72045898 0.02563477 C5.5705957 0.03401367 6.42073242 0.04239258 7.29663086 0.05102539 C8.15063477 0.05553711 9.00463867 0.06004883 9.88452148 0.06469727 C12.00108749 0.07652166 14.11761771 0.0944577 16.23413086 0.11352539 C16.23413086 2.09352539 16.23413086 4.07352539 16.23413086 6.11352539 C34.71413086 6.11352539 53.19413086 6.11352539 72.23413086 6.11352539 C72.23413086 12.05352539 72.23413086 17.99352539 72.23413086 24.11352539 C47.81413086 24.11352539 23.39413086 24.11352539 -1.76586914 24.11352539 C-2.98445022 21.67636324 -2.89512489 20.08078482 -2.89868164 17.35961914 C-2.8999707 16.42311523 -2.90125977 15.48661133 -2.90258789 14.52172852 C-2.8987207 13.54139648 -2.89485352 12.56106445 -2.89086914 11.55102539 C-2.89473633 10.56682617 -2.89860352 9.58262695 -2.90258789 8.56860352 C-2.90129883 7.63338867 -2.90000977 6.69817383 -2.89868164 5.73461914 C-2.89755371 4.87280029 -2.89642578 4.01098145 -2.89526367 3.12304688 C-2.73066177 0.56674831 -2.56741212 0.16505553 0 0 Z " fill="#E27A40" transform="translate(203.765869140625,110.886474609375)"/>
<path d="M0 0 C2.949375 -0.020625 5.89875 -0.04125 8.9375 -0.0625 C9.86812256 -0.071604 10.79874512 -0.08070801 11.75756836 -0.09008789 C12.48596924 -0.09258545 13.21437012 -0.09508301 13.96484375 -0.09765625 C14.7137085 -0.10289307 15.46257324 -0.10812988 16.23413086 -0.11352539 C18 0 18 0 19 1 C19.04063832 2.66617115 19.042721 4.33388095 19 6 C19.68682358 5.99777939 20.37364716 5.99555878 21.08128357 5.99327087 C28.20205162 5.97122105 35.32281004 5.95609467 42.44360352 5.94506836 C45.10441481 5.94002617 47.76522332 5.93319264 50.42602539 5.92456055 C54.24105516 5.91248991 58.05604844 5.90677071 61.87109375 5.90234375 C63.66793861 5.89460182 63.66793861 5.89460182 65.50108337 5.88670349 C67.15268211 5.88659019 67.15268211 5.88659019 68.83764648 5.88647461 C69.81249496 5.884254 70.78734344 5.88203339 71.79173279 5.87974548 C74 6 74 6 75 7 C75.09981214 9.6773138 75.13879875 12.32304175 75.125 15 C75.12886719 15.75023438 75.13273437 16.50046875 75.13671875 17.2734375 C75.12661053 22.87338947 75.12661053 22.87338947 74 24 C71.69946165 24.09443335 69.39597827 24.11742128 67.09350586 24.11352539 C66.37159561 24.11367142 65.64968536 24.11381744 64.90589905 24.1139679 C62.50885053 24.11326869 60.11187877 24.10547595 57.71484375 24.09765625 C56.05717511 24.0957921 54.39950593 24.09436818 52.74183655 24.09336853 C48.37045786 24.08954312 43.99911219 24.07971265 39.62774658 24.06866455 C35.17045539 24.05845092 30.71315889 24.05387101 26.25585938 24.04882812 C17.50388938 24.0380904 8.7519526 24.02049342 0 24 C0 16.08 0 8.16 0 0 Z " fill="#E2645C" transform="translate(123,111)"/>
<path d="M0 0 C1.31238144 0.00222061 2.62476288 0.00444122 3.97691345 0.00672913 C4.6988237 0.0065831 5.42073395 0.00643707 6.16452026 0.00628662 C8.56156879 0.00698583 10.95854054 0.01477857 13.35557556 0.02259827 C15.0132442 0.02446242 16.67091338 0.02588633 18.32858276 0.02688599 C22.69996145 0.03071139 27.07130712 0.04054186 31.44267273 0.05158997 C35.89996392 0.0618036 40.35726043 0.0663835 44.81455994 0.07142639 C53.56652993 0.08216412 62.31846672 0.09976109 71.07041931 0.12025452 C71.07041931 6.06025452 71.07041931 12.00025452 71.07041931 18.12025452 C43.84541931 18.61525452 43.84541931 18.61525452 16.07041931 19.12025452 C15.74041931 20.44025452 15.41041931 21.76025452 15.07041931 23.12025452 C12.11454821 24.59819007 9.42044286 24.29079103 6.13291931 24.30775452 C4.88639587 24.3219342 3.63987244 24.33611389 2.35557556 24.35072327 C-0.92958069 24.12025452 -0.92958069 24.12025452 -3.92958069 22.12025452 C-4.286026 19.9813385 -4.286026 19.9813385 -4.25770569 17.36634827 C-4.25254944 16.42984436 -4.24739319 15.49334045 -4.24208069 14.52845764 C-4.22145569 13.54812561 -4.20083069 12.56779358 -4.17958069 11.55775452 C-4.17442444 10.5735553 -4.16926819 9.58935608 -4.16395569 8.57533264 C-4.07123933 0.16711774 -4.07123933 0.16711774 0 0 Z " fill="#EA7E41" transform="translate(204.92958068847656,64.87974548339844)"/>
<path d="M0 0 C9.63113018 -0.02255209 19.26224295 -0.0409157 28.89339352 -0.05181217 C33.36505549 -0.05704074 37.83669853 -0.06413789 42.30834961 -0.07543945 C46.62011973 -0.08626929 50.93187159 -0.09227704 55.24365425 -0.09487724 C56.89236298 -0.09673132 58.54107066 -0.1003516 60.18977165 -0.10573006 C62.49103872 -0.11294178 64.7922294 -0.11399089 67.09350586 -0.11352539 C69.06207802 -0.11685631 69.06207802 -0.11685631 71.07041931 -0.12025452 C74 0 74 0 75 1 C75.09981214 3.6773138 75.13879875 6.32304175 75.125 9 C75.12886719 9.75023438 75.13273437 10.50046875 75.13671875 11.2734375 C75.12661053 16.87338947 75.12661053 16.87338947 74 18 C72.28134591 18.0935919 70.55884256 18.11744611 68.83764648 18.11352539 C67.73658066 18.11344986 66.63551483 18.11337433 65.50108337 18.11329651 C64.3031868 18.10813522 63.10529022 18.10297394 61.87109375 18.09765625 C60.65172623 18.0962413 59.4323587 18.09482635 58.17604065 18.09336853 C54.2631693 18.08774967 50.35035419 18.07519396 46.4375 18.0625 C43.79231853 18.05748743 41.14713617 18.0529241 38.50195312 18.04882812 C32.00128274 18.03777411 25.50064539 18.02101764 19 18 C18.855625 18.804375 18.71125 19.60875 18.5625 20.4375 C18 23 18 23 17 24 C14.50941086 24.09997642 12.05272605 24.13879627 9.5625 24.125 C8.52125977 24.13080078 8.52125977 24.13080078 7.45898438 24.13671875 C2.25327988 24.12663994 2.25327988 24.12663994 0 23 C0 15.41 0 7.82 0 0 Z " fill="#E1635C" transform="translate(123,65)"/>
<path d="M0 0 C0.66 0 1.32 0 2 0 C2 7.26 2 14.52 2 22 C25.43 22 48.86 22 73 22 C73 17.05 73 12.1 73 7 C54.85 7 36.7 7 18 7 C18 6.67 18 6.34 18 6 C25.28421548 5.97687084 32.5684231 5.95908199 39.85266781 5.94818783 C43.23471813 5.94296025 46.6167434 5.93586489 49.9987793 5.92456055 C53.88329777 5.91165733 57.76780597 5.90677076 61.65234375 5.90234375 C62.87211411 5.89718246 64.09188446 5.89202118 65.34861755 5.88670349 C67.03024742 5.88659019 67.03024742 5.88659019 68.74584961 5.88647461 C69.73846298 5.884254 70.73107635 5.88203339 71.75376892 5.87974548 C74 6 74 6 75 7 C75.09981214 9.6773138 75.13879875 12.32304175 75.125 15 C75.12886719 15.75023438 75.13273437 16.50046875 75.13671875 17.2734375 C75.12661053 22.87338947 75.12661053 22.87338947 74 24 C71.69946165 24.09443335 69.39597827 24.11742128 67.09350586 24.11352539 C66.37159561 24.11367142 65.64968536 24.11381744 64.90589905 24.1139679 C62.50885053 24.11326869 60.11187877 24.10547595 57.71484375 24.09765625 C56.05717511 24.0957921 54.39950593 24.09436818 52.74183655 24.09336853 C48.37045786 24.08954312 43.99911219 24.07971265 39.62774658 24.06866455 C35.17045539 24.05845092 30.71315889 24.05387101 26.25585938 24.04882812 C17.50388938 24.0380904 8.7519526 24.02049342 0 24 C0 16.08 0 8.16 0 0 Z " fill="#A14A51" transform="translate(123,111)"/>
<path d="M0 0 C9.63113018 -0.02255209 19.26224295 -0.0409157 28.89339352 -0.05181217 C33.36505549 -0.05704074 37.83669853 -0.06413789 42.30834961 -0.07543945 C46.62011973 -0.08626929 50.93187159 -0.09227704 55.24365425 -0.09487724 C56.89236298 -0.09673132 58.54107066 -0.1003516 60.18977165 -0.10573006 C62.49103872 -0.11294178 64.7922294 -0.11399089 67.09350586 -0.11352539 C69.06207802 -0.11685631 69.06207802 -0.11685631 71.07041931 -0.12025452 C74 0 74 0 75 1 C75.09981214 3.6773138 75.13879875 6.32304175 75.125 9 C75.12886719 9.75023438 75.13273437 10.50046875 75.13671875 11.2734375 C75.12661053 16.87338947 75.12661053 16.87338947 74 18 C72.28134591 18.0935919 70.55884256 18.11744611 68.83764648 18.11352539 C67.73658066 18.11344986 66.63551483 18.11337433 65.50108337 18.11329651 C64.3031868 18.10813522 63.10529022 18.10297394 61.87109375 18.09765625 C60.65172623 18.0962413 59.4323587 18.09482635 58.17604065 18.09336853 C54.2631693 18.08774967 50.35035419 18.07519396 46.4375 18.0625 C43.79231853 18.05748743 41.14713617 18.0529241 38.50195312 18.04882812 C32.00128274 18.03777411 25.50064539 18.02101764 19 18 C19 17.67 19 17.34 19 17 C36.82 17 54.64 17 73 17 C73 11.72 73 6.44 73 1 C38.35 1.495 38.35 1.495 3 2 C2.67 8.6 2.34 15.2 2 22 C7.28 22 12.56 22 18 22 C17.67 22.66 17.34 23.32 17 24 C14.54159395 24.02691685 12.08348118 24.04679802 9.625 24.0625 C8.92632812 24.07087891 8.22765625 24.07925781 7.5078125 24.08789062 C2.2265625 24.11328125 2.2265625 24.11328125 0 23 C0 15.41 0 7.82 0 0 Z " fill="#72363F" transform="translate(123,65)"/>
<path d="M0 0 C0.33 0 0.66 0 1 0 C1 5.94 1 11.88 1 18 C-26.225 18.495 -26.225 18.495 -54 19 C-54.33 20.32 -54.66 21.64 -55 23 C-57.97041449 24.48520725 -60.69764447 24.1705822 -64 24.1875 C-65.8871875 24.20876953 -65.8871875 24.20876953 -67.8125 24.23046875 C-71 24 -71 24 -73 22 C-67.39 22 -61.78 22 -56 22 C-56 20.02 -56 18.04 -56 16 C-37.52 16 -19.04 16 0 16 C0 10.72 0 5.44 0 0 Z " fill="#6D4031" transform="translate(275,65)"/>
<path d="M0 0 C33 0 66 0 100 0 C100 0.33 100 0.66 100 1 C68.32 1.33 36.64 1.66 4 2 C4.66 3.32 5.32 4.64 6 6 C3.96166576 4.7260411 1.96147874 3.38938077 0 2 C0 1.34 0 0.68 0 0 Z " fill="#C45559" transform="translate(88,107)"/>
<path d="M0 0 C5.75 4.625 5.75 4.625 8 8 C8 8.99 8 9.98 8 11 C4.43793278 11.14567407 0.87663449 11.23419196 -2.6875 11.3125 C-4.19860352 11.3753418 -4.19860352 11.3753418 -5.74023438 11.43945312 C-13.09943646 11.5608921 -13.09943646 11.5608921 -15.82275391 9.86474609 C-17.20703125 8.48046875 -17.20703125 8.48046875 -19 6 C-18.01 6 -17.02 6 -16 6 C-15.34 6.66 -14.68 7.32 -14 8 C-11.96532566 8.27686065 -11.96532566 8.27686065 -9.6484375 8.1953125 C-8.79765625 8.18886719 -7.946875 8.18242187 -7.0703125 8.17578125 C-6.18085937 8.15902344 -5.29140625 8.14226562 -4.375 8.125 C-3.4778125 8.11597656 -2.580625 8.10695312 -1.65625 8.09765625 C0.56276586 8.0740497 2.78125077 8.0411231 5 8 C4.175 7.05125 3.35 6.1025 2.5 5.125 C0 2.25 0 2.25 0 0 Z " fill="#B04767" transform="translate(104,124)"/>
<path d="M0 0 C2.33294775 -0.04241723 4.66702567 -0.04092937 7 0 C8.86715507 1.86715507 8.13245683 4.50393825 8.13671875 6.984375 C8.13285156 7.77328125 8.12898438 8.5621875 8.125 9.375 C8.12886719 10.15617187 8.13273437 10.93734375 8.13671875 11.7421875 C8.13100915 15.0765946 8.06131005 17.81606986 7 21 C6.34 21 5.68 21 5 21 C5 14.73 5 8.46 5 2 C3.35 1.67 1.7 1.34 0 1 C0 0.67 0 0.34 0 0 Z " fill="#D5547D" transform="translate(25,107)"/>
<path d="M0 0 C2.64590014 -0.02684679 5.29153096 -0.04676357 7.9375 -0.0625 C8.69224609 -0.07087891 9.44699219 -0.07925781 10.22460938 -0.08789062 C12.14994313 -0.09652441 14.07535581 -0.05224333 16 0 C17 1 17 1 17.0625 3.5625 C17.041875 4.366875 17.02125 5.17125 17 6 C16.01 6.495 16.01 6.495 15 7 C15 5.35 15 3.7 15 2 C10.05 2.33 5.1 2.66 0 3 C0 2.01 0 1.02 0 0 Z " fill="#C86D71" transform="translate(125,111)"/>
<path d="M0 0 C9.9 0 19.8 0 30 0 C30 0.33 30 0.66 30 1 C21.42 1.33 12.84 1.66 4 2 C4.66 3.32 5.32 4.64 6 6 C3.96166576 4.7260411 1.96147874 3.38938077 0 2 C0 1.34 0 0.68 0 0 Z " fill="#B24168" transform="translate(88,107)"/>
<path d="M0 0 C5.61 0 11.22 0 17 0 C17 1.65 17 3.3 17 5 C16.67 4.01 16.34 3.02 16 2 C11.05 2.33 6.1 2.66 1 3 C0.67 2.01 0.34 1.02 0 0 Z " fill="#D48535" transform="translate(202,111)"/>
</svg>
